<svg width="19" height="19" viewBox="0 0 19 19" fill="none" xmlns="http://www.w3.org/2000/svg">
<path d="M9.47511 0C7.60111 0 5.7692 0.555705 4.21103 1.59684C2.65285 2.63798 1.4384 4.11779 0.721254 5.84914C0.00410545 7.58049 -0.183533 9.48562 0.182066 11.3236C0.547665 13.1616 1.45008 14.8499 2.7752 16.175C4.10032 17.5001 5.78862 18.4026 7.62661 18.7682C9.4646 19.1338 11.3697 18.9461 13.1011 18.229C14.8324 17.5118 16.3122 16.2974 17.3534 14.7392C18.3945 13.181 18.9502 11.3491 18.9502 9.47511C18.9502 6.96215 17.952 4.55212 16.175 2.7752C14.3981 0.998268 11.9881 0 9.47511 0ZM14.391 7.49998L8.36136 13.5296C8.19983 13.6911 7.98077 13.7818 7.75237 13.7818C7.52396 13.7818 7.30491 13.6911 7.14338 13.5296L4.55926 10.9455C4.40235 10.783 4.31553 10.5654 4.31749 10.3396C4.31945 10.1137 4.41004 9.89769 4.56975 9.73799C4.72945 9.57828 4.9455 9.48769 5.17135 9.48573C5.3972 9.48377 5.61478 9.57059 5.77724 9.72749L7.75237 11.7026L13.173 6.282C13.3354 6.12509 13.553 6.03827 13.7789 6.04023C14.0047 6.0422 14.2208 6.13279 14.3805 6.29249C14.5402 6.4522 14.6308 6.66824 14.6327 6.89409C14.6347 7.11994 14.5479 7.33752 14.391 7.49998Z" fill="url(#paint0_linear_407_501)"/>
<defs>
<linearGradient id="paint0_linear_407_501" x1="9.47511" y1="0" x2="9.47511" y2="18.9502" gradientUnits="userSpaceOnUse">
<stop stop-color="#F7B53A"/>
<stop offset="1" stop-color="#EFA32E"/>
</linearGradient>
</defs>
</svg>
