<svg width="121" height="121" viewBox="0 0 121 121" fill="none" xmlns="http://www.w3.org/2000/svg">
<circle cx="60.5" cy="60.5" r="57" fill="#FBC042" stroke="white" stroke-width="7"/>
<path d="M41.376 46.544H31.008V52.016C31.456 51.4613 32.096 51.0133 32.928 50.672C33.76 50.3093 34.6453 50.128 35.584 50.128C37.2907 50.128 38.688 50.5013 39.776 51.248C40.864 51.9947 41.6533 52.9547 42.144 54.128C42.6347 55.28 42.88 56.5173 42.88 57.84C42.88 60.2933 42.176 62.2667 40.768 63.76C39.3813 65.2533 37.3973 66 34.816 66C32.384 66 30.4427 65.392 28.992 64.176C27.5413 62.96 26.72 61.3707 26.528 59.408H30.88C31.072 60.2613 31.4987 60.944 32.16 61.456C32.8427 61.968 33.7067 62.224 34.752 62.224C36.0107 62.224 36.96 61.8293 37.6 61.04C38.24 60.2507 38.56 59.2053 38.56 57.904C38.56 56.5813 38.2293 55.5787 37.568 54.896C36.928 54.192 35.9787 53.84 34.72 53.84C33.824 53.84 33.0773 54.064 32.48 54.512C31.8827 54.96 31.456 55.5573 31.2 56.304H26.912V42.608H41.376V46.544ZM46.9297 54.032C46.9297 50.3413 47.5911 47.4507 48.9137 45.36C50.2577 43.2693 52.4764 42.224 55.5697 42.224C58.6631 42.224 60.8711 43.2693 62.1938 45.36C63.5378 47.4507 64.2098 50.3413 64.2098 54.032C64.2098 57.744 63.5378 60.656 62.1938 62.768C60.8711 64.88 58.6631 65.936 55.5697 65.936C52.4764 65.936 50.2577 64.88 48.9137 62.768C47.5911 60.656 46.9297 57.744 46.9297 54.032ZM59.7937 54.032C59.7937 52.4533 59.6871 51.1307 59.4738 50.064C59.2818 48.976 58.8764 48.0907 58.2577 47.408C57.6604 46.7253 56.7644 46.384 55.5697 46.384C54.3751 46.384 53.4684 46.7253 52.8497 47.408C52.2524 48.0907 51.8471 48.976 51.6337 50.064C51.4417 51.1307 51.3457 52.4533 51.3457 54.032C51.3457 55.6533 51.4417 57.0187 51.6337 58.128C51.8257 59.216 52.2311 60.1013 52.8497 60.784C53.4684 61.4453 54.3751 61.776 55.5697 61.776C56.7644 61.776 57.6711 61.4453 58.2898 60.784C58.9084 60.1013 59.3137 59.216 59.5057 58.128C59.6977 57.0187 59.7937 55.6533 59.7937 54.032ZM67.7452 48.4C67.7452 46.7787 68.2146 45.5093 69.1532 44.592C70.1132 43.6747 71.3399 43.216 72.8332 43.216C74.3266 43.216 75.5426 43.6747 76.4812 44.592C77.4412 45.5093 77.9212 46.7787 77.9212 48.4C77.9212 50.0427 77.4412 51.3227 76.4812 52.24C75.5426 53.1573 74.3266 53.616 72.8332 53.616C71.3399 53.616 70.1132 53.1573 69.1532 52.24C68.2146 51.3227 67.7452 50.0427 67.7452 48.4ZM88.2892 43.6L75.7132 66H71.3612L83.9053 43.6H88.2892ZM72.8012 45.904C71.6279 45.904 71.0412 46.736 71.0412 48.4C71.0412 50.0853 71.6279 50.928 72.8012 50.928C73.3772 50.928 73.8252 50.7253 74.1452 50.32C74.4652 49.8933 74.6252 49.2533 74.6252 48.4C74.6252 46.736 74.0172 45.904 72.8012 45.904ZM81.7932 61.168C81.7932 59.5253 82.2626 58.256 83.2013 57.36C84.1612 56.4427 85.3879 55.984 86.8813 55.984C88.3746 55.984 89.5799 56.4427 90.4972 57.36C91.4359 58.256 91.9053 59.5253 91.9053 61.168C91.9053 62.8107 91.4359 64.0907 90.4972 65.008C89.5799 65.9253 88.3746 66.384 86.8813 66.384C85.3666 66.384 84.1399 65.9253 83.2013 65.008C82.2626 64.0907 81.7932 62.8107 81.7932 61.168ZM86.8492 58.672C85.6332 58.672 85.0252 59.504 85.0252 61.168C85.0252 62.8533 85.6332 63.696 86.8492 63.696C88.0439 63.696 88.6413 62.8533 88.6413 61.168C88.6413 59.504 88.0439 58.672 86.8492 58.672Z" fill="white"/>
<path d="M28.832 72.88C30.016 72.88 31.0507 73.1093 31.936 73.568C32.832 74.016 33.52 74.6667 34 75.52C34.4907 76.3627 34.736 77.3493 34.736 78.48C34.736 79.6107 34.4907 80.592 34 81.424C33.52 82.256 32.832 82.896 31.936 83.344C31.0507 83.7813 30.016 84 28.832 84H25.2V72.88H28.832ZM28.832 82.512C30.1333 82.512 31.1307 82.16 31.824 81.456C32.5173 80.752 32.864 79.76 32.864 78.48C32.864 77.1893 32.5173 76.1813 31.824 75.456C31.1307 74.7307 30.1333 74.368 28.832 74.368H27.024V82.512H28.832ZM37.7917 74.016C37.4611 74.016 37.1837 73.904 36.9597 73.68C36.7357 73.456 36.6237 73.1787 36.6237 72.848C36.6237 72.5173 36.7357 72.24 36.9597 72.016C37.1837 71.792 37.4611 71.68 37.7917 71.68C38.1117 71.68 38.3837 71.792 38.6077 72.016C38.8317 72.24 38.9437 72.5173 38.9437 72.848C38.9437 73.1787 38.8317 73.456 38.6077 73.68C38.3837 73.904 38.1117 74.016 37.7917 74.016ZM38.6877 75.184V84H36.8637V75.184H38.6877ZM44.6025 84.144C43.9092 84.144 43.2852 84.0213 42.7305 83.776C42.1865 83.52 41.7545 83.1787 41.4345 82.752C41.1145 82.3147 40.9438 81.8293 40.9225 81.296H42.8105C42.8425 81.6693 43.0185 81.984 43.3385 82.24C43.6692 82.4853 44.0798 82.608 44.5705 82.608C45.0825 82.608 45.4772 82.512 45.7545 82.32C46.0425 82.1173 46.1865 81.8613 46.1865 81.552C46.1865 81.2213 46.0265 80.976 45.7065 80.816C45.3972 80.656 44.9012 80.48 44.2185 80.288C43.5572 80.1067 43.0185 79.9307 42.6025 79.76C42.1865 79.5893 41.8238 79.328 41.5145 78.976C41.2158 78.624 41.0665 78.16 41.0665 77.584C41.0665 77.1147 41.2052 76.688 41.4825 76.304C41.7598 75.9093 42.1545 75.6 42.6665 75.376C43.1892 75.152 43.7865 75.04 44.4585 75.04C45.4612 75.04 46.2665 75.296 46.8745 75.808C47.4932 76.3093 47.8238 76.9973 47.8665 77.872H46.0425C46.0105 77.4773 45.8505 77.1627 45.5625 76.928C45.2745 76.6933 44.8852 76.576 44.3945 76.576C43.9145 76.576 43.5465 76.6667 43.2905 76.848C43.0345 77.0293 42.9065 77.2693 42.9065 77.568C42.9065 77.8027 42.9918 78 43.1625 78.16C43.3332 78.32 43.5412 78.448 43.7865 78.544C44.0318 78.6293 44.3945 78.7413 44.8745 78.88C45.5145 79.0507 46.0372 79.2267 46.4425 79.408C46.8585 79.5787 47.2158 79.8347 47.5145 80.176C47.8132 80.5173 47.9678 80.9707 47.9785 81.536C47.9785 82.0373 47.8398 82.4853 47.5625 82.88C47.2852 83.2747 46.8905 83.584 46.3785 83.808C45.8772 84.032 45.2852 84.144 44.6025 84.144ZM49.6614 79.584C49.6614 78.6773 49.8427 77.8827 50.2054 77.2C50.5787 76.5067 51.0907 75.9733 51.7414 75.6C52.392 75.2267 53.1387 75.04 53.9814 75.04C55.048 75.04 55.928 75.296 56.6214 75.808C57.3254 76.3093 57.8 77.0293 58.0454 77.968H56.0774C55.9174 77.5307 55.6614 77.1893 55.3094 76.944C54.9574 76.6987 54.5147 76.576 53.9814 76.576C53.2347 76.576 52.6374 76.8427 52.1894 77.376C51.752 77.8987 51.5334 78.6347 51.5334 79.584C51.5334 80.5333 51.752 81.2747 52.1894 81.808C52.6374 82.3413 53.2347 82.608 53.9814 82.608C55.0374 82.608 55.736 82.144 56.0774 81.216H58.0454C57.7894 82.112 57.3094 82.8267 56.6054 83.36C55.9014 83.8827 55.0267 84.144 53.9814 84.144C53.1387 84.144 52.392 83.9573 51.7414 83.584C51.0907 83.2 50.5787 82.6667 50.2054 81.984C49.8427 81.2907 49.6614 80.4907 49.6614 79.584ZM64.0071 84.144C63.1751 84.144 62.4231 83.9573 61.7511 83.584C61.0791 83.2 60.5511 82.6667 60.1671 81.984C59.7831 81.2907 59.5911 80.4907 59.5911 79.584C59.5911 78.688 59.7885 77.8933 60.1831 77.2C60.5778 76.5067 61.1165 75.9733 61.7991 75.6C62.4818 75.2267 63.2445 75.04 64.0871 75.04C64.9298 75.04 65.6925 75.2267 66.3751 75.6C67.0578 75.9733 67.5965 76.5067 67.9911 77.2C68.3858 77.8933 68.5831 78.688 68.5831 79.584C68.5831 80.48 68.3805 81.2747 67.9751 81.968C67.5698 82.6613 67.0151 83.2 66.3111 83.584C65.6178 83.9573 64.8498 84.144 64.0071 84.144ZM64.0071 82.56C64.4765 82.56 64.9138 82.448 65.3191 82.224C65.7351 82 66.0711 81.664 66.3271 81.216C66.5831 80.768 66.7111 80.224 66.7111 79.584C66.7111 78.944 66.5885 78.4053 66.3431 77.968C66.0978 77.52 65.7725 77.184 65.3671 76.96C64.9618 76.736 64.5245 76.624 64.0551 76.624C63.5858 76.624 63.1485 76.736 62.7431 76.96C62.3485 77.184 62.0338 77.52 61.7991 77.968C61.5645 78.4053 61.4471 78.944 61.4471 79.584C61.4471 80.5333 61.6871 81.2693 62.1671 81.792C62.6578 82.304 63.2711 82.56 64.0071 82.56ZM78.6902 75.184V84H76.8662V82.96C76.5782 83.3227 76.1996 83.6107 75.7302 83.824C75.2716 84.0267 74.7809 84.128 74.2582 84.128C73.5649 84.128 72.9409 83.984 72.3862 83.696C71.8422 83.408 71.4102 82.9813 71.0902 82.416C70.7809 81.8507 70.6262 81.168 70.6262 80.368V75.184H72.4342V80.096C72.4342 80.8853 72.6316 81.4933 73.0262 81.92C73.4209 82.336 73.9596 82.544 74.6422 82.544C75.3249 82.544 75.8636 82.336 76.2582 81.92C76.6636 81.4933 76.8662 80.8853 76.8662 80.096V75.184H78.6902ZM85.8649 75.04C86.5582 75.04 87.1769 75.184 87.7209 75.472C88.2755 75.76 88.7075 76.1867 89.0169 76.752C89.3262 77.3173 89.4809 78 89.4809 78.8V84H87.6729V79.072C87.6729 78.2827 87.4755 77.68 87.0809 77.264C86.6862 76.8373 86.1475 76.624 85.4649 76.624C84.7822 76.624 84.2382 76.8373 83.8329 77.264C83.4382 77.68 83.2409 78.2827 83.2409 79.072V84H81.4169V75.184H83.2409V76.192C83.5395 75.8293 83.9182 75.5467 84.3769 75.344C84.8462 75.1413 85.3422 75.04 85.8649 75.04ZM94.2555 76.672V81.552C94.2555 81.8827 94.3302 82.1227 94.4795 82.272C94.6395 82.4107 94.9062 82.48 95.2795 82.48H96.3995V84H94.9595C94.1382 84 93.5088 83.808 93.0715 83.424C92.6342 83.04 92.4155 82.416 92.4155 81.552V76.672H91.3755V75.184H92.4155V72.992H94.2555V75.184H96.3995V76.672H94.2555Z" fill="white"/>
</svg>
