<svg width="26" height="26" viewBox="0 0 26 26" fill="none" xmlns="http://www.w3.org/2000/svg">
<path d="M10.8893 15.7813H1.28809V8.71594C1.28809 8.11943 1.526 7.54735 1.94948 7.12556C2.37297 6.70376 2.94734 6.4668 3.54623 6.4668H22.2224C22.8213 6.4668 23.3957 6.70376 23.8192 7.12556C24.2426 7.54735 24.4805 8.11943 24.4805 8.71594V15.7813H14.8794" stroke="white" stroke-width="1.28333" stroke-linecap="round" stroke-linejoin="round"/>
<path d="M14.8795 15.7812H22.7637V22.2257C22.7637 22.8222 22.5258 23.3942 22.1023 23.816C21.6788 24.2378 21.1045 24.4748 20.5056 24.4748H5.26401C4.66511 24.4748 4.09074 24.2378 3.66726 23.816C3.24377 23.3942 3.00586 22.8222 3.00586 22.2257V15.7812H10.8894" stroke="white" stroke-width="1.28333" stroke-linecap="round" stroke-linejoin="round"/>
<path d="M14.8788 13.4121H10.8887V18.2762H14.8788V13.4121Z" stroke="white" stroke-width="1.28333" stroke-linecap="round" stroke-linejoin="round"/>
<path d="M9.39673 1.375H16.3694C16.9825 1.375 17.5706 1.61759 18.0041 2.0494C18.4376 2.48121 18.6812 3.06687 18.6812 3.67755V6.46694H7.08496V3.67755C7.08496 3.06687 7.32852 2.48121 7.76206 2.0494C8.1956 1.61759 8.78361 1.375 9.39673 1.375Z" stroke="white" stroke-width="1.28333" stroke-linecap="round" stroke-linejoin="round"/>
</svg>
