<svg width="25" height="23" viewBox="0 0 25 23" fill="none" xmlns="http://www.w3.org/2000/svg">
<path d="M19.3108 9.15991C19.661 9.15991 20.0077 9.0912 20.3313 8.95772C20.6548 8.82424 20.9488 8.62858 21.1965 8.38194C21.4441 8.13529 21.6405 7.84248 21.7745 7.52022C21.9086 7.19796 21.9775 6.85256 21.9775 6.50375C21.9775 6.15494 21.9086 5.80954 21.7745 5.48728C21.6405 5.16502 21.4441 4.87221 21.1965 4.62556C20.9488 4.37892 20.6548 4.18327 20.3313 4.04978C20.0077 3.9163 19.661 3.84759 19.3108 3.84759C18.8952 3.85024 18.4861 3.95063 18.1169 4.1406C17.933 3.5311 17.535 3.00791 16.9956 2.66673C16.4563 2.32555 15.8116 2.18919 15.1796 2.2826C14.5475 2.37601 13.9704 2.69294 13.5537 3.17541C13.137 3.65789 12.9087 4.27365 12.9105 4.91006" stroke="white" stroke-width="0.9625" stroke-linecap="round" stroke-linejoin="round"/>
<path d="M14.1182 2.27422C13.7586 1.8411 13.3 1.50023 12.7808 1.28025C12.2615 1.06027 11.6969 0.9676 11.1343 1.01002C10.5716 1.05244 10.0275 1.22872 9.5474 1.52404C9.06734 1.81936 8.66545 2.22511 8.37547 2.7072C8.08549 3.1893 7.91589 3.73366 7.88092 4.29457C7.84594 4.85548 7.94662 5.41656 8.17449 5.93069C8.40235 6.44481 8.75076 6.89697 9.19044 7.24918C9.63012 7.60139 10.1482 7.84337 10.7013 7.9548H10.8755" stroke="white" stroke-width="0.9625" stroke-miterlimit="10" stroke-linecap="round"/>
<path d="M3.65679 4.70718C3.92245 4.20402 4.32114 3.78275 4.80975 3.48892C5.29837 3.19508 5.85833 3.03987 6.4291 3.04004C6.9171 3.04313 7.39747 3.16102 7.83105 3.38408" stroke="white" stroke-width="0.9625" stroke-linecap="round" stroke-linejoin="round"/>
<path d="M16.918 10.0096C16.25 10.0096 15.6094 9.74527 15.137 9.27482C14.6647 8.80437 14.3993 8.1663 14.3993 7.50098" stroke="white" stroke-width="0.9625" stroke-miterlimit="10" stroke-linecap="round"/>
<path d="M16.917 10.0098V15.7795L17.9346 16.7935" stroke="white" stroke-width="0.9625" stroke-miterlimit="10" stroke-linecap="round"/>
<path d="M14.9014 13.271V16.2813L15.9189 17.2953V20.0442" stroke="white" stroke-width="0.9625" stroke-miterlimit="10" stroke-linecap="round"/>
<path d="M8.86719 12.9785V15.7796L7.84966 16.7936" stroke="white" stroke-width="0.9625" stroke-miterlimit="10" stroke-linecap="round"/>
<path d="M10.8828 12.9785V16.2813L9.86528 17.2953V20.0442" stroke="white" stroke-width="0.9625" stroke-miterlimit="10" stroke-linecap="round"/>
<path d="M5.82982 20.0443V16.2919L6.84766 15.529L6.8476 13.0411H3.799C3.13102 13.0411 2.49039 12.7768 2.01806 12.3064C1.54572 11.8359 1.28037 11.1978 1.28037 10.5325C1.28037 9.8672 1.54572 9.22913 2.01806 8.75868C2.49039 8.28822 3.13102 8.02393 3.799 8.02393" stroke="white" stroke-width="0.9625" stroke-miterlimit="10" stroke-linecap="round"/>
<path d="M22.897 9.02734C23.385 9.1405 23.8142 9.42847 24.1028 9.83642C24.3915 10.2444 24.5194 10.7438 24.4623 11.2396C24.4051 11.7355 24.1669 12.193 23.7929 12.5252C23.419 12.8574 22.9354 13.041 22.4344 13.0411H18.9296L18.9295 15.2781L19.9473 16.2919V20.0442" stroke="white" stroke-width="0.9625" stroke-miterlimit="10" stroke-linecap="round"/>
<path d="M12.8906 18.539V13.041" stroke="white" stroke-width="0.9625" stroke-miterlimit="10" stroke-linecap="round"/>
<path d="M14.4007 5.99586C14.4007 6.27295 14.6263 6.49758 14.9045 6.49758C15.1827 6.49758 15.4082 6.27295 15.4082 5.99586C15.4082 5.71877 15.1827 5.49414 14.9045 5.49414C14.6263 5.49414 14.4007 5.71877 14.4007 5.99586Z" fill="white"/>
<path d="M2.56481 6.39332C2.56481 6.67041 2.79034 6.89504 3.06854 6.89504C3.34674 6.89504 3.57227 6.67041 3.57227 6.39332C3.57227 6.11623 3.34674 5.8916 3.06854 5.8916C2.79034 5.8916 2.56481 6.11623 2.56481 6.39332Z" fill="white"/>
<path d="M18.9353 21.2881C18.9353 21.8423 19.3863 22.2915 19.9427 22.2915C20.4991 22.2915 20.9502 21.8423 20.9502 21.2881C20.9502 20.7339 20.4991 20.2847 19.9427 20.2847C19.3863 20.2847 18.9353 20.7339 18.9353 21.2881Z" stroke="white" stroke-width="0.9625" stroke-miterlimit="10" stroke-linecap="round"/>
<path d="M14.904 21.2881C14.904 21.8423 15.3551 22.2915 15.9115 22.2915C16.4679 22.2915 16.9189 21.8423 16.9189 21.2881C16.9189 20.7339 16.4679 20.2847 15.9115 20.2847C15.3551 20.2847 14.904 20.7339 14.904 21.2881Z" stroke="white" stroke-width="0.9625" stroke-miterlimit="10" stroke-linecap="round"/>
<path d="M8.86009 21.2881C8.86009 21.8423 9.31115 22.2915 9.86755 22.2915C10.4239 22.2915 10.875 21.8423 10.875 21.2881C10.875 20.7339 10.4239 20.2847 9.86755 20.2847C9.31115 20.2847 8.86009 20.7339 8.86009 21.2881Z" stroke="white" stroke-width="0.9625" stroke-miterlimit="10" stroke-linecap="round"/>
<path d="M4.83275 21.2881C4.83275 21.8423 5.2838 22.2915 5.8402 22.2915C6.3966 22.2915 6.84766 21.8423 6.84766 21.2881C6.84766 20.7339 6.3966 20.2847 5.8402 20.2847C5.2838 20.2847 4.83275 20.7339 4.83275 21.2881Z" stroke="white" stroke-width="0.9625" stroke-miterlimit="10" stroke-linecap="round"/>
</svg>
