<svg width="24" height="24" viewBox="0 0 24 24" fill="none" xmlns="http://www.w3.org/2000/svg">
<g clip-path="url(#clip0_421_236)">
<path d="M4.15057 13.2214C5.21355 13.2214 6.08327 12.3551 6.08327 11.2964C6.08327 10.2376 5.21355 9.37139 4.15057 9.37139C3.08758 9.37139 2.21786 10.2376 2.21786 11.2964C2.21786 12.3551 3.08758 13.2214 4.15057 13.2214ZM5.24254 14.2801C4.88499 14.2224 4.52744 14.1839 4.15057 14.1839C3.19388 14.1839 2.28551 14.386 1.46411 14.7421C0.749005 15.0501 0.285156 15.7431 0.285156 16.5228V18.0339H4.63374V16.4843C4.63374 15.6854 4.856 14.9346 5.24254 14.2801ZM19.6122 13.2214C20.6752 13.2214 21.5449 12.3551 21.5449 11.2964C21.5449 10.2376 20.6752 9.37139 19.6122 9.37139C18.5492 9.37139 17.6795 10.2376 17.6795 11.2964C17.6795 12.3551 18.5492 13.2214 19.6122 13.2214ZM23.4776 16.5228C23.4776 15.7431 23.0138 15.0501 22.2987 14.7421C21.4773 14.386 20.5689 14.1839 19.6122 14.1839C19.2353 14.1839 18.8778 14.2224 18.5202 14.2801C18.9068 14.9346 19.129 15.6854 19.129 16.4843V18.0339H23.4776V16.5228ZM15.9787 13.847C14.8481 13.3465 13.4565 12.9808 11.8814 12.9808C10.3062 12.9808 8.91468 13.3561 7.78405 13.847C6.74039 14.309 6.08327 15.3485 6.08327 16.4843V18.0339H17.6795V16.4843C17.6795 15.3485 17.0224 14.309 15.9787 13.847ZM8.08362 16.1089C8.17059 15.8875 8.20925 15.7335 8.963 15.4448C9.90036 15.079 10.886 14.9058 11.8814 14.9058C12.8767 14.9058 13.8624 15.079 14.7998 15.4448C15.5439 15.7335 15.5825 15.8875 15.6792 16.1089H8.08362ZM11.8814 8.40889C12.4129 8.40889 12.8477 8.84201 12.8477 9.37139C12.8477 9.90076 12.4129 10.3339 11.8814 10.3339C11.3499 10.3339 10.915 9.90076 10.915 9.37139C10.915 8.84201 11.3499 8.40889 11.8814 8.40889ZM11.8814 6.48389C10.2772 6.48389 8.98233 7.77364 8.98233 9.37139C8.98233 10.9691 10.2772 12.2589 11.8814 12.2589C13.4855 12.2589 14.7804 10.9691 14.7804 9.37139C14.7804 7.77364 13.4855 6.48389 11.8814 6.48389Z" fill="white"/>
</g>
<defs>
<clipPath id="clip0_421_236">
<rect width="23.1925" height="23.1" fill="white" transform="translate(0.285156 0.708984)"/>
</clipPath>
</defs>
</svg>
