<svg width="24" height="24" viewBox="0 0 24 24" fill="none" xmlns="http://www.w3.org/2000/svg">
<path d="M6.60546 5.33809C6.66344 6.19471 6.80839 7.03209 7.04032 7.83096L5.88069 8.98596C5.48449 7.83096 5.23324 6.60859 5.14627 5.33809H6.60546ZM16.1337 16.9073C16.9551 17.1383 17.7958 17.2827 18.6462 17.3405V18.7746C17.3706 18.688 16.1434 18.4377 14.9741 18.0527L16.1337 16.9073ZM7.53316 3.41309H4.15092C3.61943 3.41309 3.18457 3.84621 3.18457 4.37559C3.18457 13.4135 10.5385 20.7381 19.6126 20.7381C20.1441 20.7381 20.5789 20.305 20.5789 19.7756V16.4165C20.5789 15.8871 20.1441 15.454 19.6126 15.454C18.4143 15.454 17.245 15.2615 16.1627 14.9053C16.066 14.8668 15.9598 14.8572 15.8631 14.8572C15.6119 14.8572 15.3703 14.9535 15.177 15.1363L13.051 17.2538C10.3163 15.8582 8.07431 13.6348 6.68277 10.911L8.80874 8.79346C9.07932 8.52396 9.15663 8.14859 9.05033 7.81171C8.69278 6.73371 8.49951 5.57871 8.49951 4.37559C8.49951 3.84621 8.06465 3.41309 7.53316 3.41309Z" fill="white"/>
</svg>
