<svg width="26" height="30" viewBox="0 0 26 30" fill="none" xmlns="http://www.w3.org/2000/svg">
<path d="M7.81568 7.09986C7.70174 6.72328 7.39615 6.42407 6.98698 6.35701L5.55229 6.11455L4.87897 4.83002C4.69252 4.47923 4.33514 4.26256 3.93633 4.26256C3.53752 4.26256 3.18014 4.47923 2.99368 4.83002L2.32036 6.11455L0.885674 6.35701C0.372915 6.4447 0 6.8832 0 7.39907C0 7.67764 0.108767 7.94074 0.300404 8.13677L1.31556 9.17367L1.10321 10.6078C1.09803 10.6594 1.09285 10.711 1.09285 10.7626C1.09285 11.3455 1.56935 11.8201 2.15462 11.8201C2.30482 11.8201 2.4602 11.7788 2.59487 11.7169V27.4253C2.59487 28.5395 3.50126 29.4423 4.62001 29.4423H20.5052C21.6239 29.4423 22.5303 28.5395 22.5303 27.4253V11.7169C22.6701 11.7788 22.8203 11.8201 22.9705 11.8201C23.5558 11.8201 24.0323 11.3455 24.0323 10.7626C24.0323 10.711 24.0323 10.6594 24.022 10.6078L23.8096 9.17367L24.8248 8.13677C25.0216 7.93558 25.1252 7.67248 25.1252 7.39907C25.1252 6.8832 24.7523 6.4447 24.2395 6.35701L22.8048 6.11455L22.1315 4.83002C21.945 4.47923 21.5877 4.26256 21.1888 4.26256C20.79 4.26256 20.4326 4.47923 20.2462 4.83002L19.5729 6.11455L18.1382 6.35701C17.729 6.42407 17.4183 6.72328 17.3095 7.09986H15.88L15.8282 6.74391L17.1437 5.40264C17.382 5.16018 17.5115 4.84034 17.5115 4.49986C17.5115 3.8705 17.0557 3.33399 16.4342 3.22566L14.5748 2.91097L13.6995 1.24986C13.4767 0.821689 13.0365 0.558594 12.5496 0.558594C12.0628 0.558594 11.6277 0.821689 11.3998 1.24986L10.5245 2.91097L8.6651 3.22566C8.0384 3.33399 7.58779 3.86534 7.58779 4.49986C7.58779 4.84034 7.71728 5.16018 7.95553 5.40264L9.27109 6.74391L9.2193 7.09986H7.78979H7.81568ZM2.1339 10.7574L2.38251 9.0705C2.40841 8.91058 2.35144 8.75066 2.24267 8.63716L1.06177 7.37327L2.75025 7.08955C2.91081 7.06375 3.04548 6.96058 3.12317 6.82129L3.94151 5.29947C3.94151 5.29947 3.96223 5.30462 3.9674 5.31494L4.75985 6.82645C4.83754 6.97089 4.9722 7.06891 5.13276 7.0947L6.8316 7.42486L5.63516 8.64232C5.52122 8.75582 5.46942 8.92089 5.49532 9.07566L5.7025 10.7884L4.1694 10.0352C4.09689 9.99907 4.0192 9.98359 3.94151 9.98359C3.86382 9.98359 3.78613 9.99907 3.71361 10.0352L2.13908 10.7626L2.1339 10.7574ZM20.5155 28.4106H4.62519C4.08135 28.4106 3.63592 27.9669 3.63592 27.4253V14.5491H21.5048V27.4253C21.5048 27.9669 21.0594 28.4106 20.5155 28.4106ZM20.0183 7.08439C20.1789 7.05859 20.3135 6.95542 20.3912 6.81613L21.2096 5.29431C21.2096 5.29431 21.2303 5.29947 21.2355 5.30978L22.0279 6.81613C22.1056 6.96058 22.2403 7.05859 22.4008 7.08439L24.0996 7.41454L22.9032 8.63201C22.7893 8.7455 22.7375 8.91058 22.7634 9.06534L22.9705 10.778L21.4374 10.0249C21.3649 9.98875 21.2872 9.97328 21.2096 9.97328C21.1319 9.97328 21.0542 9.98875 20.9817 10.0249L19.4123 10.7522L19.6609 9.06534C19.6868 8.90542 19.6298 8.7455 19.5211 8.63201L18.3402 7.36812L20.0287 7.08439H20.0183ZM17.5736 8.13161L18.5888 9.17367L18.3764 10.6078C18.3713 10.6594 18.3661 10.711 18.3661 10.7626C18.3661 11.3455 18.8426 11.8201 19.4279 11.8201C19.5884 11.8201 19.7542 11.784 19.8992 11.7118L21.2044 11.0669L21.4996 11.2114V13.5173H3.63592V11.2114L3.93115 11.0669L5.23117 11.7066C5.3762 11.7788 5.54194 11.8149 5.7025 11.8149C6.28777 11.8149 6.76427 11.3403 6.76427 10.7574C6.76427 10.7058 6.76427 10.6542 6.75391 10.6026L6.54156 9.16851L7.55671 8.13161H9.08463L9.0173 8.59589C9.00694 8.6578 9.00176 8.7197 9.00176 8.78161C9.00176 9.49351 9.58185 10.0713 10.2966 10.0713C10.4986 10.0713 10.6954 10.0249 10.8715 9.93716L12.56 9.10661L14.2485 9.93716C14.4246 10.0249 14.6266 10.0713 14.8234 10.0713C15.5381 10.0713 16.1182 9.49351 16.1182 8.78161C16.1182 8.7197 16.1182 8.6578 16.1027 8.59589L16.0354 8.12645H17.5581L17.5736 8.13161ZM8.72725 4.68042C8.68064 4.62883 8.65474 4.56693 8.65474 4.49986C8.65474 4.37605 8.74797 4.26772 8.87228 4.24193L10.9855 3.88597C11.146 3.86018 11.2807 3.75701 11.3584 3.61772L12.3528 1.72963C12.4409 1.55939 12.7257 1.55939 12.8138 1.72963L13.8082 3.61772C13.8859 3.76216 14.0206 3.86018 14.1811 3.88597L16.2943 4.24709C16.4186 4.26772 16.5119 4.37605 16.5119 4.49986C16.5119 4.56693 16.486 4.63399 16.4394 4.68042L14.9425 6.2074C14.8286 6.32089 14.7768 6.48597 14.8027 6.64074L15.1134 8.78677C15.1134 8.96732 14.9011 9.10145 14.7405 9.01891L12.819 8.07486C12.7465 8.03875 12.6688 8.02327 12.5911 8.02327C12.5134 8.02327 12.4357 8.03875 12.3632 8.07486L10.4416 9.02407C10.2862 9.10145 10.0687 8.9828 10.0687 8.75581L10.3795 6.64589C10.4054 6.48597 10.3484 6.32605 10.2396 6.21256L8.74279 4.68558L8.72725 4.68042Z" fill="white"/>
<path d="M9.09118 11.0205C8.80631 11.0205 8.57324 11.2527 8.57324 11.5364C8.57324 11.8201 8.80631 12.0523 9.09118 12.0523H16.0523C16.3371 12.0523 16.5702 11.8201 16.5702 11.5364C16.5702 11.2527 16.3371 11.0205 16.0523 11.0205H9.09118Z" fill="white"/>
<path d="M6.94267 15.751C5.78249 15.751 4.83984 16.6899 4.83984 17.8454C4.83984 19.001 5.78249 19.9399 6.94267 19.9399C8.10285 19.9399 9.0455 19.001 9.0455 17.8454C9.0455 16.6899 8.10285 15.751 6.94267 15.751ZM6.94267 18.9081C6.36258 18.9081 5.87572 18.4232 5.87572 17.8454C5.87572 17.2676 6.35222 16.7827 6.94267 16.7827C7.53312 16.7827 8.00962 17.2573 8.00962 17.8454C8.00962 18.4335 7.52276 18.9081 6.94267 18.9081Z" fill="white"/>
<path d="M12.5706 15.751C11.4104 15.751 10.4678 16.6899 10.4678 17.8454C10.4678 19.001 11.4104 19.9399 12.5706 19.9399C13.7308 19.9399 14.6734 19.001 14.6734 17.8454C14.6734 16.6899 13.7308 15.751 12.5706 15.751ZM12.5706 18.9081C11.9905 18.9081 11.5036 18.4232 11.5036 17.8454C11.5036 17.2676 11.9802 16.7827 12.5706 16.7827C13.161 16.7827 13.6376 17.2573 13.6376 17.8454C13.6376 18.4335 13.1507 18.9081 12.5706 18.9081Z" fill="white"/>
<path d="M18.1985 15.751C17.0383 15.751 16.0957 16.6899 16.0957 17.8454C16.0957 19.001 17.0383 19.9399 18.1985 19.9399C19.3587 19.9399 20.3014 19.001 20.3014 17.8454C20.3014 16.6899 19.3587 15.751 18.1985 15.751ZM18.1985 18.9081C17.6184 18.9081 17.1316 18.4232 17.1316 17.8454C17.1316 17.2676 17.6081 16.7827 18.1985 16.7827C18.789 16.7827 19.2655 17.2573 19.2655 17.8454C19.2655 18.4335 18.7786 18.9081 18.1985 18.9081Z" fill="white"/>
<path d="M6.94267 21.5801C5.78249 21.5801 4.83984 22.519 4.83984 23.6745C4.83984 24.8301 5.78249 25.769 6.94267 25.769C8.10285 25.769 9.0455 24.8301 9.0455 23.6745C9.0455 22.519 8.10285 21.5801 6.94267 21.5801ZM6.94267 24.7372C6.36258 24.7372 5.87572 24.2523 5.87572 23.6745C5.87572 23.0967 6.35222 22.6118 6.94267 22.6118C7.53312 22.6118 8.00962 23.0864 8.00962 23.6745C8.00962 24.2626 7.52276 24.7372 6.94267 24.7372Z" fill="white"/>
<path d="M12.5706 21.5801C11.4104 21.5801 10.4678 22.519 10.4678 23.6745C10.4678 24.8301 11.4104 25.769 12.5706 25.769C13.7308 25.769 14.6734 24.8301 14.6734 23.6745C14.6734 22.519 13.7308 21.5801 12.5706 21.5801ZM12.5706 24.7372C11.9905 24.7372 11.5036 24.2523 11.5036 23.6745C11.5036 23.0967 11.9802 22.6118 12.5706 22.6118C13.161 22.6118 13.6376 23.0864 13.6376 23.6745C13.6376 24.2626 13.1507 24.7372 12.5706 24.7372Z" fill="white"/>
<path d="M18.1985 21.5801C17.0383 21.5801 16.0957 22.519 16.0957 23.6745C16.0957 24.8301 17.0383 25.769 18.1985 25.769C19.3587 25.769 20.3014 24.8301 20.3014 23.6745C20.3014 22.519 19.3587 21.5801 18.1985 21.5801ZM18.1985 24.7372C17.6184 24.7372 17.1316 24.2523 17.1316 23.6745C17.1316 23.0967 17.6081 22.6118 18.1985 22.6118C18.789 22.6118 19.2655 23.0864 19.2655 23.6745C19.2655 24.2626 18.7786 24.7372 18.1985 24.7372Z" fill="white"/>
</svg>
