<svg width="85" height="91" viewBox="0 0 85 91" fill="none" xmlns="http://www.w3.org/2000/svg">
<path d="M45.4688 87.9062H39.4062C36.0567 87.9062 33.3438 85.1933 33.3438 81.8438V75.7812H51.5312V81.8438C51.5312 85.1933 48.8183 87.9062 45.4688 87.9062Z" stroke="#F3C320" stroke-width="6.0625" stroke-miterlimit="10" stroke-linejoin="round"/>
<path d="M63.6562 42.4375C63.6562 50.0702 60.0612 57.2573 53.9562 61.8375L51.5312 63.6562V75.7812H33.3438V63.6562L30.9187 61.8375C24.8138 57.2573 21.2188 50.0702 21.2188 42.4375C21.2188 30.7187 30.7187 21.2188 42.4375 21.2188C54.1563 21.2188 63.6562 30.7187 63.6562 42.4375Z" stroke="#F3C320" stroke-width="6.0625" stroke-miterlimit="10" stroke-linejoin="round"/>
<path d="M42.4375 12.125V0" stroke="#F3C320" stroke-width="6.0625" stroke-miterlimit="10" stroke-linejoin="round"/>
<path d="M21.007 21.0041L12.4316 12.4287" stroke="#F3C320" stroke-width="6.0625" stroke-miterlimit="10" stroke-linejoin="round"/>
<path d="M63.8682 21.0041L72.4436 12.4287" stroke="#F3C320" stroke-width="6.0625" stroke-miterlimit="10" stroke-linejoin="round"/>
<path d="M12.125 42.4375H0" stroke="#F3C320" stroke-width="6.0625" stroke-miterlimit="10" stroke-linejoin="round"/>
<path d="M72.75 42.4375H84.875" stroke="#F3C320" stroke-width="6.0625" stroke-miterlimit="10" stroke-linejoin="round"/>
</svg>
