<svg width="52" height="92" viewBox="0 0 52 92" fill="none" xmlns="http://www.w3.org/2000/svg">
<path d="M45.5001 31.4167L25.6085 42.7833L5.7168 31.4167V3H45.5001V31.4167Z" stroke="#B75458" stroke-width="5.68333" stroke-linecap="round" stroke-linejoin="round"/>
<path d="M25.6083 88.2499C38.1636 88.2499 48.3417 78.0718 48.3417 65.5165C48.3417 52.9613 38.1636 42.7832 25.6083 42.7832C13.0531 42.7832 2.875 52.9613 2.875 65.5165C2.875 78.0718 13.0531 88.2499 25.6083 88.2499Z" stroke="#B75458" stroke-width="5.68333" stroke-linecap="round" stroke-linejoin="round"/>
<path d="M25.6089 54.1504C22.5942 54.1504 19.7031 55.3479 17.5714 57.4796C15.4397 59.6113 14.2422 62.5024 14.2422 65.5171" stroke="#B75458" stroke-width="5.68333" stroke-linecap="round" stroke-linejoin="round"/>
<path d="M25.6084 76.8833C28.623 76.8833 31.5142 75.6857 33.6458 73.554C35.7775 71.4224 36.9751 68.5312 36.9751 65.5166" stroke="#B75458" stroke-width="5.68333" stroke-linecap="round" stroke-linejoin="round"/>
<path d="M17.083 3V37.1" stroke="#B75458" stroke-width="5.68333" stroke-linecap="round" stroke-linejoin="round"/>
<path d="M34.1338 3V37.1" stroke="#B75458" stroke-width="5.68333" stroke-linecap="round" stroke-linejoin="round"/>
</svg>
