<svg width="65" height="65" viewBox="0 0 65 65" fill="none" xmlns="http://www.w3.org/2000/svg">
<circle cx="32.5" cy="32.5" r="32.5" fill="url(#paint0_linear_437_220)"/>
<path fill-rule="evenodd" clip-rule="evenodd" d="M48.5845 19.4882C44.1974 26.0109 30.9827 39.2042 30.9827 39.2042L30.9776 39.199C30.9465 39.233 30.9185 39.2684 30.8852 39.3017C30.0546 40.1308 28.9277 40.4663 27.8452 40.3384C28.1932 41.7957 27.8259 43.3955 26.7153 44.5342C26.7153 44.5342 21.1584 51.4057 15 47.0762C15 47.0762 18.3208 46.1458 18.6098 43.4664C18.6098 43.4664 18.1664 40.7663 20.6042 38.2642C21.6971 37.1425 23.226 36.7575 24.6278 37.0848C24.5155 36.0178 24.8517 34.9123 25.6704 34.0943C25.7029 34.0611 25.7392 34.033 25.7731 34.0012L25.768 33.996C25.768 33.996 38.9745 20.7954 45.5068 16.4142C46.3714 15.7957 47.5788 15.8681 48.3547 16.6433C49.1328 17.4199 49.2045 18.6251 48.5845 19.4882ZM25.6867 39.2677C25.1384 38.7194 24.4275 38.4068 23.6671 38.4068C22.9038 38.4068 22.1826 38.7142 21.6395 39.2721C19.7662 41.1949 20.047 43.3984 20.0544 43.4672C19.8933 44.9598 19.0472 46.2316 18.1649 46.9964C18.4768 47.0533 18.7923 47.0821 19.1145 47.0821C22.6245 47.0821 25.5818 43.6386 25.6091 43.6061C25.6091 43.6061 27.6331 41.2148 25.6867 39.2677ZM26.0842 36.6976C26.0842 37.2858 26.2978 37.8401 26.7153 38.2561C27.1328 38.6729 27.7114 38.9145 28.3011 38.9145C28.8908 38.9145 29.4236 38.6736 29.8278 38.2686L30.9761 37.1085C31.0345 37.0486 31.1143 36.9674 31.1786 36.9016L28.0772 33.8002C28.0092 33.866 27.9257 33.9465 27.8651 34.0064L26.7146 35.1421C26.2978 35.5574 26.0842 36.1094 26.0842 36.6976ZM47.3113 17.6904C47.1273 17.5064 46.9123 17.479 46.7992 17.479C46.6426 17.479 46.4933 17.5263 46.33 17.6431C41.7352 20.7245 33.0296 28.9985 29.1117 32.7938L32.185 35.8671C35.9832 31.9536 44.2772 23.2436 47.3837 18.6259C47.5936 18.3347 47.5633 17.9409 47.3113 17.6904Z" fill="white"/>
<defs>
<linearGradient id="paint0_linear_437_220" x1="32.5" y1="0" x2="32.5" y2="65" gradientUnits="userSpaceOnUse">
<stop stop-color="#8D79FE"/>
<stop offset="1" stop-color="#CBBCFE"/>
</linearGradient>
</defs>
</svg>
