<svg width="65" height="65" viewBox="0 0 65 65" fill="none" xmlns="http://www.w3.org/2000/svg">
<circle cx="32.5" cy="32.5" r="32.5" fill="url(#paint0_linear_437_225)"/>
<path d="M32.069 34.6758C29.946 34.6758 28.2115 36.412 28.2115 38.536C28.2115 39.7174 28.7583 40.7661 29.6002 41.476C28.4898 41.9255 27.5289 42.6686 26.8091 43.6168C26.5097 43.3777 26.1894 43.1686 25.8447 43.0052C26.3478 42.4829 26.663 41.785 26.663 41.0103C26.663 39.3995 25.3199 38.0924 23.6983 38.0924C22.0767 38.0924 20.7281 39.3995 20.7281 41.0103C20.7281 41.7892 21.0488 42.4903 21.5574 43.0134C20.1215 43.6956 19.0471 45.0266 18.8048 46.667L18.6836 47.4771H45.4489L45.3304 46.667C45.0883 45.0273 44.0156 43.6959 42.5806 43.0134C43.0878 42.4905 43.4072 41.7885 43.4072 41.0103C43.4072 39.3995 42.0614 38.0924 40.4397 38.0924C38.8181 38.0924 37.4722 39.3995 37.4722 41.0103C37.4722 41.7844 37.7875 42.483 38.2906 43.0052C37.9449 43.169 37.6235 43.377 37.3234 43.6168C36.6042 42.6701 35.6467 41.9254 34.5378 41.476C35.3797 40.7661 35.9292 39.7174 35.9292 38.536C35.9292 36.412 34.1921 34.6758 32.069 34.6758ZM32.069 36.0838C33.429 36.0838 34.5158 37.1738 34.5158 38.536C34.5158 39.8982 33.429 40.9855 32.069 40.9855C30.709 40.9855 29.6195 39.8982 29.6195 38.536C29.6195 37.1738 30.709 36.0838 32.069 36.0838ZM23.6983 39.5059C24.5749 39.5059 25.2551 40.1797 25.2551 41.0103C25.2551 41.8409 24.5749 42.5147 23.6983 42.5147C22.8217 42.5147 22.1415 41.8409 22.1415 41.0103C22.1415 40.1797 22.8217 39.5059 23.6983 39.5059ZM40.4397 39.5059C41.3163 39.5059 41.9965 40.1797 41.9965 41.0103C41.9965 41.8409 41.3163 42.5147 40.4397 42.5147C39.5631 42.5147 38.8857 41.8409 38.8857 41.0103C38.8857 40.1797 39.5631 39.5059 40.4397 39.5059ZM32.069 42.399C34.3332 42.3998 36.0734 43.9766 36.7779 46.0553H27.3574C28.0626 43.9763 29.8042 42.3985 32.069 42.399ZM23.6983 43.9254C24.5939 43.9257 25.4345 44.2722 26.0817 44.854C25.9047 45.2385 25.7673 45.6416 25.6656 46.0636H20.6509C21.2059 44.8568 22.2683 43.9251 23.6983 43.9254ZM40.4397 43.9254C41.8687 43.9259 42.9296 44.8577 43.4844 46.0636H38.4697C38.3681 45.6418 38.2305 45.2384 38.0536 44.854C38.7014 44.272 39.5438 43.9253 40.4397 43.9254Z" fill="white"/>
<path d="M17 18C17 21.7379 17 25.4758 17 29.2137C20.9385 29.2137 24.877 29.2137 28.8156 29.2137C29.8742 30.5049 30.9328 31.796 31.9914 33.0871C33.0874 31.796 34.1835 30.5049 35.2795 29.2137C39.1864 29.2137 43.0932 29.2137 47 29.2137C47 25.4758 47 21.7379 47 18C37 18 27 18 17 18ZM18.4121 19.4093C27.4707 19.4093 36.5293 19.4093 45.5879 19.4093C45.5879 22.2077 45.5879 25.0061 45.5879 27.8045C41.9347 27.8045 38.2815 27.8045 34.6282 27.8045C33.755 28.8314 32.8818 29.8583 32.0086 30.8853C31.1671 29.8583 30.3256 28.8314 29.4841 27.8045C25.7935 27.8045 22.1028 27.8045 18.4121 27.8045C18.4121 25.0061 18.4121 22.2077 18.4121 19.4093Z" fill="white"/>
<path d="M21.7158 21.3311C21.7158 21.8344 21.7158 22.3378 21.7158 22.8412C28.5722 22.8412 35.4286 22.8412 42.2849 22.8412C42.2849 22.3378 42.2849 21.8344 42.2849 21.3311C35.4286 21.3311 28.5722 21.3311 21.7158 21.3311Z" fill="white"/>
<path d="M21.7158 24.271C21.7158 24.7753 21.7158 25.2797 21.7158 25.784C26.7536 25.784 31.7914 25.784 36.8293 25.784C36.8293 25.2797 36.8293 24.7753 36.8293 24.271C31.7914 24.271 26.7536 24.271 21.7158 24.271Z" fill="white"/>
<defs>
<linearGradient id="paint0_linear_437_225" x1="32.5" y1="0" x2="32.5" y2="65" gradientUnits="userSpaceOnUse">
<stop stop-color="#F67E73"/>
<stop offset="1" stop-color="#FCB6AF"/>
</linearGradient>
</defs>
</svg>
