<svg width="65" height="65" viewBox="0 0 65 65" fill="none" xmlns="http://www.w3.org/2000/svg">
<circle cx="32.5" cy="32.5" r="32.5" fill="url(#paint0_linear_437_228)"/>
<path d="M19.6071 23.7122C19.9396 23.7122 20.2092 23.4694 20.2092 23.1698C20.2092 22.8703 19.9396 22.6274 19.6071 22.6274C19.2745 22.6274 19.0049 22.8703 19.0049 23.1698C19.0049 23.4694 19.2745 23.7122 19.6071 23.7122Z" fill="white"/>
<path d="M23.6237 23.7122C23.9562 23.7122 24.2258 23.4694 24.2258 23.1698C24.2258 22.8703 23.9562 22.6274 23.6237 22.6274C23.2911 22.6274 23.0215 22.8703 23.0215 23.1698C23.0215 23.4694 23.2911 23.7122 23.6237 23.7122Z" fill="white"/>
<path d="M21.6188 23.7122C21.9514 23.7122 22.221 23.4694 22.221 23.1698C22.221 22.8703 21.9514 22.6274 21.6188 22.6274C21.2862 22.6274 21.0166 22.8703 21.0166 23.1698C21.0166 23.4694 21.2862 23.7122 21.6188 23.7122Z" fill="white"/>
<path d="M26.0331 31.0387L27.8397 29.4116C27.9531 29.3095 28.0168 29.171 28.0168 29.0265C28.0168 28.8821 27.9531 28.7436 27.8397 28.6414C27.7263 28.5393 27.5725 28.4819 27.4121 28.4819C27.2518 28.4819 27.098 28.5393 26.9846 28.6414L24.7444 30.6645C24.6323 30.7661 24.5693 30.9036 24.5693 31.0469C24.5693 31.1902 24.6323 31.3276 24.7444 31.4292L26.9846 33.4523C27.0405 33.5031 27.1071 33.5435 27.1805 33.571C27.2539 33.5985 27.3326 33.6127 27.4121 33.6127C27.4916 33.6127 27.5703 33.5985 27.6437 33.571C27.7171 33.5435 27.7837 33.5031 27.8397 33.4523C27.9518 33.3507 28.0148 33.2132 28.0148 33.0699C28.0148 32.9266 27.9518 32.7892 27.8397 32.6875L26.0331 31.0387Z" fill="white"/>
<path d="M34.6555 33.4423C34.7683 33.5433 34.921 33.6 35.0801 33.6C35.2391 33.6 35.3918 33.5433 35.5046 33.4423L37.7507 31.4464C37.8629 31.3447 37.9259 31.2073 37.9259 31.064C37.9259 30.9207 37.8629 30.7832 37.7507 30.6816L35.5046 28.6586C35.3912 28.5572 35.2377 28.5005 35.0779 28.501C34.9181 28.5015 34.7651 28.5592 34.6525 28.6613C34.5399 28.7634 34.477 28.9016 34.4775 29.0456C34.4781 29.1895 34.5421 29.3273 34.6555 29.4287L36.4621 31.0559L34.6555 32.683C34.5452 32.7844 34.4834 32.9207 34.4834 33.0626C34.4834 33.2046 34.5452 33.3409 34.6555 33.4423Z" fill="white"/>
<path d="M32.6567 28.8162C32.5879 28.7804 32.512 28.7571 32.4333 28.7478C32.3545 28.7385 32.2745 28.7433 32.1978 28.7619C32.1211 28.7806 32.0493 28.8127 31.9865 28.8565C31.9236 28.9002 31.871 28.9548 31.8317 29.0169L29.6096 32.5315C29.566 32.5932 29.5368 32.6622 29.5236 32.7344C29.5104 32.8066 29.5136 32.8804 29.5329 32.9515C29.5522 33.0225 29.5873 33.0893 29.636 33.1479C29.6848 33.2064 29.7461 33.2554 29.8164 33.292C29.8868 33.3286 29.9646 33.352 30.0452 33.3609C30.1258 33.3697 30.2076 33.3637 30.2856 33.3433C30.3636 33.323 30.4362 33.2886 30.4991 33.2423C30.5619 33.196 30.6137 33.1387 30.6514 33.0739L32.8975 29.5755C32.9396 29.512 32.9667 29.4414 32.9773 29.368C32.9879 29.2947 32.9817 29.2202 32.9592 29.149C32.9366 29.0779 32.8981 29.0117 32.8461 28.9545C32.7941 28.8972 32.7296 28.8502 32.6567 28.8162Z" fill="white"/>
<path d="M47.627 36.3275C47.5915 36.3272 47.5569 36.3172 47.5279 36.2988C47.4988 36.2804 47.4767 36.2544 47.4644 36.2244C47.2248 35.6567 46.8853 35.1274 46.4588 34.6569C46.4386 34.6306 46.4278 34.5994 46.4278 34.5675C46.4278 34.5355 46.4386 34.5043 46.4588 34.478C46.6422 34.1917 46.6919 33.8515 46.5971 33.5322C46.5023 33.2129 46.2706 32.9405 45.953 32.7749L45.5013 32.5308V22.6271C45.5013 22.1956 45.311 21.7817 44.9722 21.4766C44.6334 21.1714 44.1739 21 43.6948 21H18.8065C18.3274 21 17.8679 21.1714 17.5291 21.4766C17.1903 21.7817 17 22.1956 17 22.6271V36.3708C17.0016 36.7056 17.1499 37.0262 17.4127 37.2629C17.6755 37.4995 18.0315 37.6331 18.4031 37.6346H26.6349L26.0327 39.6414H25.2318C24.6453 39.6417 24.0761 39.8202 23.616 40.1479C23.156 40.4756 22.8321 40.9335 22.6967 41.4475H21.2153C21.0556 41.4475 20.9024 41.5046 20.7895 41.6063C20.6765 41.708 20.6131 41.846 20.6131 41.9898C20.6131 42.1337 20.6765 42.2716 20.7895 42.3733C20.9024 42.4751 21.0556 42.5322 21.2153 42.5322H36.5529C36.5427 42.6618 36.5569 42.792 36.595 42.9173C36.6402 43.0764 36.7205 43.2256 36.8312 43.3561C36.942 43.4866 37.0808 43.5956 37.2394 43.6766L38.51 44.3383C38.6677 44.4199 38.8418 44.4727 39.0222 44.4936C39.2026 44.5146 39.3858 44.5034 39.5614 44.4606C39.737 44.4177 39.9015 44.3442 40.0455 44.2441C40.1896 44.144 40.3103 44.0194 40.4008 43.8773C40.4203 43.8496 40.4484 43.8277 40.4816 43.8142C40.5147 43.8007 40.5516 43.7962 40.5875 43.8014C41.249 43.9044 41.9252 43.9044 42.5868 43.8014C42.6234 43.796 42.6609 43.8009 42.6943 43.8155C42.7277 43.8301 42.7554 43.8535 42.7734 43.8827C42.8962 44.072 43.0721 44.2288 43.2835 44.3373C43.495 44.4459 43.7344 44.5023 43.9778 44.501C44.2206 44.5031 44.4596 44.447 44.6703 44.3383L45.9409 43.6766C46.0987 43.5946 46.2368 43.4853 46.3474 43.355C46.458 43.2247 46.5388 43.0759 46.5852 42.9173C46.6332 42.7596 46.6457 42.5949 46.6219 42.4328C46.5981 42.2707 46.5385 42.1146 46.4467 41.9736C46.426 41.9464 46.4149 41.9143 46.4149 41.8814C46.4149 41.8484 46.426 41.8163 46.4467 41.7891C46.8719 41.3198 47.2114 40.7926 47.4524 40.2271C47.4639 40.1966 47.4858 40.1702 47.515 40.1517C47.5443 40.1332 47.5793 40.1235 47.615 40.1241C47.9818 40.1226 48.3332 39.9907 48.5926 39.7571C48.852 39.5235 48.9984 39.207 49 38.8766V37.5532C48.9937 37.228 48.8467 36.9179 48.5902 36.6889C48.3337 36.4599 47.9881 36.3302 47.627 36.3275ZM18.2044 22.6271C18.2044 22.4833 18.2678 22.3453 18.3807 22.2436C18.4937 22.1419 18.6468 22.0847 18.8065 22.0847H43.6948C43.8545 22.0847 44.0076 22.1419 44.1206 22.2436C44.2335 22.3453 44.297 22.4833 44.297 22.6271V24.2542H18.2044V22.6271ZM18.4031 36.5498C18.377 36.5498 18.3511 36.5452 18.327 36.5362C18.3029 36.5272 18.281 36.514 18.2626 36.4974C18.2441 36.4808 18.2295 36.4611 18.2195 36.4393C18.2095 36.4176 18.2044 36.3944 18.2044 36.3708V25.339H44.297V31.9885C44.012 31.9203 43.7103 31.9362 43.4361 32.0338C43.1619 32.1314 42.9296 32.3056 42.7734 32.5308C42.7547 32.5576 42.7274 32.5786 42.6952 32.5912C42.663 32.6038 42.6273 32.6073 42.5928 32.6014C41.9308 32.5037 41.2555 32.5037 40.5935 32.6014C40.559 32.6081 40.523 32.605 40.4906 32.5923C40.4582 32.5797 40.431 32.5582 40.4129 32.5308C40.3224 32.3887 40.2016 32.264 40.0574 32.1641C39.9132 32.0641 39.7485 31.9909 39.5728 31.9485C39.397 31.9062 39.2137 31.8955 39.0333 31.9173C38.853 31.9391 38.6792 31.9927 38.522 32.0753L37.2514 32.7369C37.0932 32.8171 36.9546 32.9252 36.8439 33.0547C36.7332 33.1843 36.6526 33.3326 36.6071 33.4908C36.5108 33.8106 36.5584 34.1517 36.7396 34.44C36.7615 34.4656 36.7735 34.4971 36.7735 34.5295C36.7735 34.5619 36.7615 34.5933 36.7396 34.619C36.3131 35.0895 35.9735 35.6187 35.7339 36.1864C35.7217 36.2165 35.6995 36.2424 35.6705 36.2608C35.6414 36.2792 35.6068 36.2892 35.5713 36.2895C35.2764 36.2899 34.9893 36.3754 34.7524 36.5336L18.4031 36.5498ZM34.4633 39.6414H27.2371L27.8393 37.6346H34.1622V38.8766C34.1661 39.1545 34.2719 39.4234 34.4633 39.6414ZM25.2379 40.7261H35.9567C36.0944 40.9762 36.2513 41.2172 36.4264 41.4475H23.9673C24.0809 41.232 24.26 41.0499 24.4838 40.9222C24.7076 40.7945 24.9669 40.7266 25.2318 40.7261H25.2379ZM47.8077 38.8766C47.8077 38.9198 47.7886 38.9611 47.7548 38.9917C47.7209 39.0222 47.6749 39.0393 47.627 39.0393C47.3465 39.0399 47.0728 39.1169 46.8417 39.2602C46.6107 39.4034 46.4331 39.6063 46.3323 39.842C46.1398 40.2993 45.8674 40.7259 45.5254 41.1058C45.349 41.302 45.2426 41.5416 45.22 41.7932C45.1975 42.0449 45.2598 42.2968 45.3989 42.5159C45.4086 42.5346 45.4136 42.555 45.4136 42.5756C45.4136 42.5962 45.4086 42.6166 45.3989 42.6353C45.3937 42.6568 45.3835 42.6771 45.369 42.6948C45.3544 42.7126 45.3359 42.7274 45.3146 42.7383L44.0621 43.3783C44.0412 43.3888 44.0182 43.3954 43.9944 43.3978C43.9706 43.4002 43.9465 43.3983 43.9235 43.3923C43.9006 43.3862 43.8792 43.3761 43.8606 43.3625C43.842 43.349 43.8265 43.3322 43.8152 43.3132C43.6728 43.0946 43.4602 42.9201 43.2054 42.8126C42.9506 42.7051 42.6656 42.6698 42.388 42.7112C41.8579 42.7925 41.3163 42.7925 40.7862 42.7112C40.508 42.6703 40.2226 42.7064 39.9677 42.8149C39.7128 42.9234 39.5006 43.0991 39.3591 43.3186C39.334 43.355 39.2946 43.3814 39.2487 43.3925C39.2029 43.4036 39.154 43.3985 39.1122 43.3783L37.8416 42.7166C37.8203 42.7057 37.8018 42.6909 37.7872 42.6732C37.7727 42.6554 37.7625 42.6351 37.7572 42.6136C37.7476 42.5949 37.7425 42.5745 37.7425 42.5539C37.7425 42.5333 37.7476 42.5129 37.7572 42.4942C37.8947 42.2746 37.9562 42.023 37.9336 41.7717C37.9111 41.5204 37.8056 41.2809 37.6308 41.0841C37.2857 40.7052 37.0111 40.2784 36.8178 39.8203C36.7168 39.5908 36.5418 39.3937 36.3154 39.2545C36.0889 39.1153 35.8214 39.0404 35.5472 39.0393C35.4993 39.0393 35.4534 39.0222 35.4195 38.9917C35.3856 38.9611 35.3666 38.9198 35.3666 38.8766V37.5532C35.3657 37.5316 35.3698 37.5101 35.3786 37.4901C35.3874 37.47 35.4007 37.4517 35.4176 37.4365C35.4346 37.4212 35.4548 37.4093 35.4771 37.4013C35.4994 37.3934 35.5233 37.3897 35.5472 37.3905C35.8269 37.3895 36.0997 37.3123 36.3297 37.1691C36.5597 37.0258 36.7362 36.8231 36.8359 36.5878C37.0278 36.1291 37.3025 35.7021 37.6489 35.3241C37.8237 35.1272 37.9292 34.8877 37.9517 34.6364C37.9742 34.3851 37.9128 34.1335 37.7753 33.9139C37.7655 33.8943 37.7604 33.873 37.7604 33.8515C37.7604 33.83 37.7655 33.8088 37.7753 33.7891C37.7802 33.7682 37.7903 33.7485 37.8049 33.7316C37.8196 33.7147 37.8383 33.701 37.8596 33.6915L39.1302 33.0298C39.1598 33.0224 39.191 33.0224 39.2206 33.0298C39.2507 33.0302 39.2802 33.0373 39.3065 33.0506C39.3328 33.0638 39.355 33.0828 39.3711 33.1058C39.5133 33.3248 39.7256 33.5 39.9803 33.6084C40.235 33.7168 40.5201 33.7534 40.7983 33.7132C41.3284 33.6319 41.87 33.6319 42.4001 33.7132C42.6801 33.7473 42.965 33.7044 43.2175 33.5902C43.47 33.476 43.6783 33.2958 43.8152 33.0732C43.827 33.0553 43.8426 33.0397 43.8611 33.0273C43.8796 33.0149 43.9007 33.0059 43.9231 33.0008C43.9455 32.9958 43.9688 32.9948 43.9916 32.9979C44.0144 33.001 44.0363 33.0082 44.0561 33.019L45.3267 33.6807C45.3481 33.6901 45.3667 33.7038 45.3814 33.7207C45.396 33.7376 45.4061 33.7573 45.411 33.7783C45.4208 33.7979 45.4259 33.8192 45.4259 33.8407C45.4259 33.8622 45.4208 33.8834 45.411 33.903C45.2724 34.1214 45.2103 34.3724 45.2329 34.623C45.2554 34.8737 45.3616 35.1124 45.5374 35.3078C45.8796 35.6895 46.152 36.118 46.3444 36.5769C46.4393 36.8167 46.6127 37.0248 46.8417 37.174C47.0707 37.3231 47.3445 37.4061 47.627 37.4122C47.651 37.4114 47.6748 37.4151 47.6971 37.423C47.7194 37.431 47.7397 37.4429 47.7566 37.4582C47.7736 37.4734 47.7869 37.4917 47.7956 37.5118C47.8044 37.5318 47.8085 37.5533 47.8077 37.5749V38.8766Z" fill="white"/>
<path d="M41.5874 35.7534C41.0467 35.7534 40.5181 35.8978 40.0685 36.1684C39.619 36.439 39.2685 36.8235 39.0616 37.2735C38.8547 37.7234 38.8006 38.2185 38.906 38.6962C39.0115 39.1738 39.2719 39.6126 39.6543 39.957C40.0366 40.3013 40.5237 40.5358 41.0541 40.6309C41.5844 40.7259 42.1341 40.6771 42.6336 40.4907C43.1332 40.3044 43.5602 39.9887 43.8606 39.5838C44.161 39.1789 44.3213 38.7028 44.3213 38.2158C44.3213 37.5627 44.0333 36.9364 43.5206 36.4746C43.0079 36.0128 42.3125 35.7534 41.5874 35.7534ZM41.5874 39.5934C41.2849 39.5934 40.9892 39.5126 40.7377 39.3612C40.4861 39.2099 40.2901 38.9947 40.1743 38.743C40.0585 38.4913 40.0283 38.2143 40.0873 37.947C40.1463 37.6798 40.292 37.4343 40.5059 37.2417C40.7198 37.049 40.9923 36.9178 41.289 36.8646C41.5857 36.8115 41.8933 36.8388 42.1728 36.943C42.4522 37.0473 42.6911 37.2239 42.8592 37.4504C43.0273 37.677 43.117 37.9433 43.117 38.2158C43.1138 38.5793 42.9512 38.9269 42.6647 39.1829C42.3782 39.4389 41.991 39.5826 41.5874 39.5826V39.5934Z" fill="white"/>
<defs>
<linearGradient id="paint0_linear_437_228" x1="32.5" y1="0" x2="32.5" y2="65" gradientUnits="userSpaceOnUse">
<stop stop-color="#58CECA"/>
<stop offset="1" stop-color="#96E9E5"/>
</linearGradient>
</defs>
</svg>
