<svg width="65" height="65" viewBox="0 0 65 65" fill="none" xmlns="http://www.w3.org/2000/svg">
<circle cx="32.5" cy="32.5" r="32.5" fill="url(#paint0_linear_437_231)"/>
<path d="M44.5576 31.7988C43.6543 31.2978 42.5928 31.3271 41.7168 31.873L37.1992 34.6958C36.8809 34.895 36.5146 35 36.1396 35H26.6162C26.0713 35 25.541 35.1089 25.04 35.3237L22.6384 36.3528C22.62 36.36 22.6028 36.3674 22.585 36.3757L20.4248 37.3013C18.9521 37.9321 18 39.3755 18 40.978V46C18 46.3359 18.1689 46.6499 18.4492 46.8349C18.6152 46.9443 18.8076 47 19 47C19.1338 47 19.2676 46.9731 19.3936 46.9189L25.9473 44.1108C26.1445 44.0259 26.3535 43.9741 26.5684 43.956L36.9883 43.0879C37.9297 43.0093 38.8154 42.5981 39.4844 41.9302L45.1797 36.2344C45.709 35.7055 46 35.0024 46 34.2475C46 33.2148 45.4609 32.2998 44.5576 31.7988ZM20 40.978C20 40.1767 20.4756 39.4551 21.2119 39.1396L22 38.8019V43.6265L20 44.4834V40.978ZM43.7656 34.8203L38.0703 40.5156C37.7363 40.8496 37.293 41.0556 36.8223 41.0947L26.4023 41.9629C25.9727 41.999 25.5537 42.103 25.1592 42.2729L24 42.7696V37.945L25.8271 37.1621C26.0781 37.0547 26.3438 37 26.6162 37H36.1396C36.8896 37 37.623 36.7895 38.2598 36.3921L42.7754 33.5693C43.1367 33.3428 43.4648 33.479 43.5879 33.5478C43.7119 33.6167 44 33.8222 44 34.2544C44 34.4682 43.917 34.6689 43.7656 34.8203Z" fill="white"/>
<path d="M32 33C34.8418 33 37.1543 30.688 37.1543 27.8462C37.1543 23.7861 32.8887 19.4746 32.707 19.293C32.3164 18.9023 31.6836 18.9023 31.293 19.293C31.1113 19.4746 26.8457 23.7861 26.8457 27.8462C26.8457 30.688 29.1582 33 32 33ZM32 21.4863C33.1152 22.7861 35.1543 25.4873 35.1543 27.8462C35.1543 29.5854 33.7393 31 32 31C30.2607 31 28.8457 29.5854 28.8457 27.8462C28.8457 25.4873 30.8848 22.7861 32 21.4863Z" fill="white"/>
<defs>
<linearGradient id="paint0_linear_437_231" x1="32.5" y1="0" x2="32.5" y2="65" gradientUnits="userSpaceOnUse">
<stop stop-color="#7BE04B"/>
<stop offset="1" stop-color="#ADEA90"/>
</linearGradient>
</defs>
</svg>
