<svg width="65" height="65" viewBox="0 0 65 65" fill="none" xmlns="http://www.w3.org/2000/svg">
<circle cx="32.5" cy="32.5" r="32.5" fill="url(#paint0_linear_437_234)"/>
<path d="M18.5 27.268C18.2703 27.4006 18.1027 27.619 18.0341 27.8752C17.9654 28.1314 18.0014 28.4043 18.134 28.634L19.134 30.366C19.1992 30.4806 19.2864 30.5813 19.3906 30.6621C19.4948 30.7429 19.614 30.8023 19.7413 30.8368C19.8686 30.8714 20.0014 30.8804 20.1322 30.8634C20.263 30.8464 20.3891 30.8037 20.5033 30.7378C20.6175 30.6718 20.7175 30.5839 20.7977 30.4792C20.8778 30.3744 20.9364 30.2548 20.9701 30.1273C21.0038 29.9998 21.0119 29.8669 20.9941 29.7363C20.9762 29.6056 20.9327 29.4798 20.866 29.366L21.847 28.8C22.3572 29.3142 22.9978 29.68 23.7 29.858V31C23.4348 31 23.1804 31.1054 22.9929 31.2929C22.8053 31.4804 22.7 31.7348 22.7 32C22.7 32.2652 22.8053 32.5196 22.9929 32.7071C23.1804 32.8946 23.4348 33 23.7 33H25.7C25.9652 33 26.2195 32.8946 26.4071 32.7071C26.5946 32.5196 26.7 32.2652 26.7 32C26.7 31.7348 26.5946 31.4804 26.4071 31.2929C26.2195 31.1054 25.9652 31 25.7 31V29.858C26.3997 29.6788 27.0377 29.3131 27.546 28.8L28.526 29.366C28.3955 29.5956 28.361 29.8674 28.4302 30.1223C28.4994 30.3771 28.6666 30.5942 28.8953 30.7263C29.124 30.8583 29.3956 30.8945 29.6509 30.827C29.9062 30.7595 30.1244 30.5938 30.258 30.366L31.258 28.634C31.3885 28.4044 31.4229 28.1326 31.3537 27.8777C31.2845 27.6229 31.1174 27.4058 30.8887 27.2737C30.66 27.1417 30.3883 27.1055 30.1331 27.173C29.8778 27.2405 29.6595 27.4062 29.526 27.634L28.535 27.062C28.6381 26.7172 28.6937 26.3599 28.7 26C28.695 25.6403 28.6408 25.283 28.539 24.938L29.53 24.366C29.6635 24.5938 29.8818 24.7595 30.1371 24.827C30.3923 24.8945 30.664 24.8583 30.8927 24.7263C31.1214 24.5942 31.2885 24.3771 31.3577 24.1223C31.4269 23.8674 31.3925 23.5956 31.262 23.366L30.262 21.634C30.1968 21.5194 30.1096 21.4187 30.0053 21.3379C29.9011 21.2571 29.7819 21.1977 29.6547 21.1632C29.5274 21.1286 29.3945 21.1196 29.2638 21.1366C29.133 21.1536 29.0069 21.1963 28.8926 21.2622C28.7784 21.3282 28.6784 21.4161 28.5983 21.5208C28.5182 21.6256 28.4596 21.7452 28.4259 21.8727C28.3922 22.0002 28.384 22.1331 28.4019 22.2637C28.4197 22.3944 28.4633 22.5202 28.53 22.634L27.55 23.2C27.0405 22.6862 26.4011 22.3205 25.7 22.142V21C25.9652 21 26.2195 20.8946 26.4071 20.7071C26.5946 20.5196 26.7 20.2652 26.7 20C26.7 19.7348 26.5946 19.4804 26.4071 19.2929C26.2195 19.1054 25.9652 19 25.7 19H23.7C23.4348 19 23.1804 19.1054 22.9929 19.2929C22.8053 19.4804 22.7 19.7348 22.7 20C22.7 20.2652 22.8053 20.5196 22.9929 20.7071C23.1804 20.8946 23.4348 21 23.7 21V22.142C22.9978 22.32 22.3572 22.6858 21.847 23.2L20.866 22.634C20.9327 22.5202 20.9762 22.3944 20.9941 22.2637C21.0119 22.1331 21.0038 22.0002 20.9701 21.8727C20.9364 21.7452 20.8778 21.6256 20.7977 21.5208C20.7175 21.4161 20.6175 21.3282 20.5033 21.2622C20.3891 21.1963 20.263 21.1536 20.1322 21.1366C20.0014 21.1196 19.8686 21.1286 19.7413 21.1632C19.614 21.1977 19.4948 21.2571 19.3906 21.3379C19.2864 21.4187 19.1992 21.5194 19.134 21.634L18.134 23.366C18.0035 23.5956 17.969 23.8674 18.0382 24.1223C18.1074 24.3771 18.2746 24.5942 18.5033 24.7263C18.732 24.8583 19.0036 24.8945 19.2589 24.827C19.5142 24.7595 19.7324 24.5938 19.866 24.366L20.857 24.939C20.7566 25.2839 20.7038 25.6408 20.7 26C20.7051 26.3593 20.7592 26.7163 20.861 27.061L19.87 27.633C19.8042 27.5188 19.7166 27.4188 19.612 27.3386C19.5075 27.2584 19.3881 27.1997 19.2608 27.1657C19.1335 27.1318 19.0008 27.1234 18.8702 27.141C18.7396 27.1585 18.6138 27.2017 18.5 27.268ZM24.7 24C25.0955 24 25.4822 24.1173 25.8111 24.3371C26.14 24.5568 26.3964 24.8692 26.5477 25.2346C26.6991 25.6001 26.7387 26.0022 26.6615 26.3902C26.5844 26.7781 26.3939 27.1345 26.1142 27.4142C25.8345 27.6939 25.4781 27.8844 25.0902 27.9616C24.7022 28.0387 24.3001 27.9991 23.9346 27.8478C23.5692 27.6964 23.2568 27.44 23.037 27.1111C22.8173 26.7822 22.7 26.3956 22.7 26C22.7 25.4696 22.9107 24.9609 23.2858 24.5858C23.6608 24.2107 24.1695 24 24.7 24Z" fill="white"/>
<path d="M44.9998 23H40.9998C40.7346 23 40.4802 23.1054 40.2927 23.2929C40.1052 23.4804 39.9998 23.7348 39.9998 24C39.9998 24.2652 40.1052 24.5196 40.2927 24.7071C40.4802 24.8946 40.7346 25 40.9998 25H42.6828L31.8698 37.615L27.6248 34.215C27.4416 34.0684 27.2128 33.9909 26.9782 33.996C26.7437 34.0012 26.5184 34.0886 26.3418 34.243L18.3418 41.243C18.1421 41.4176 18.02 41.6645 18.0022 41.9292C17.9845 42.1939 18.0727 42.4548 18.2473 42.6545C18.422 42.8542 18.6688 42.9764 18.9335 42.9941C19.1982 43.0118 19.4591 42.9236 19.6588 42.749L27.0288 36.3L31.3758 39.778C31.5785 39.9399 31.8361 40.0168 32.0943 39.9923C32.3525 39.9679 32.5912 39.8441 32.7598 39.647L43.9998 26.537V28C43.9998 28.2652 44.1052 28.5196 44.2927 28.7071C44.4802 28.8946 44.7346 29 44.9998 29C45.265 29 45.5194 28.8946 45.7069 28.7071C45.8945 28.5196 45.9998 28.2652 45.9998 28V24C45.9998 23.7348 45.8945 23.4804 45.7069 23.2929C45.5194 23.1054 45.265 23 44.9998 23Z" fill="white"/>
<path d="M22 43C21.7348 43 21.4804 43.1054 21.2929 43.2929C21.1054 43.4804 21 43.7348 21 44V46C21 46.2652 21.1054 46.5196 21.2929 46.7071C21.4804 46.8946 21.7348 47 22 47C22.2652 47 22.5196 46.8946 22.7071 46.7071C22.8946 46.5196 23 46.2652 23 46V44C23 43.7348 22.8946 43.4804 22.7071 43.2929C22.5196 43.1054 22.2652 43 22 43Z" fill="white"/>
<path d="M27 39C26.7348 39 26.4804 39.1054 26.2929 39.2929C26.1054 39.4804 26 39.7348 26 40V46C26 46.2652 26.1054 46.5196 26.2929 46.7071C26.4804 46.8946 26.7348 47 27 47C27.2652 47 27.5196 46.8946 27.7071 46.7071C27.8946 46.5196 28 46.2652 28 46V40C28 39.7348 27.8946 39.4804 27.7071 39.2929C27.5196 39.1054 27.2652 39 27 39Z" fill="white"/>
<path d="M32 42C31.7348 42 31.4804 42.1054 31.2929 42.2929C31.1054 42.4804 31 42.7348 31 43V46C31 46.2652 31.1054 46.5196 31.2929 46.7071C31.4804 46.8946 31.7348 47 32 47C32.2652 47 32.5196 46.8946 32.7071 46.7071C32.8946 46.5196 33 46.2652 33 46V43C33 42.7348 32.8946 42.4804 32.7071 42.2929C32.5196 42.1054 32.2652 42 32 42Z" fill="white"/>
<path d="M37 38C36.7348 38 36.4804 38.1054 36.2929 38.2929C36.1054 38.4804 36 38.7348 36 39V46C36 46.2652 36.1054 46.5196 36.2929 46.7071C36.4804 46.8946 36.7348 47 37 47C37.2652 47 37.5196 46.8946 37.7071 46.7071C37.8946 46.5196 38 46.2652 38 46V39C38 38.7348 37.8946 38.4804 37.7071 38.2929C37.5196 38.1054 37.2652 38 37 38Z" fill="white"/>
<path d="M42 32C41.7348 32 41.4804 32.1054 41.2929 32.2929C41.1054 32.4804 41 32.7348 41 33V46C41 46.2652 41.1054 46.5196 41.2929 46.7071C41.4804 46.8946 41.7348 47 42 47C42.2652 47 42.5196 46.8946 42.7071 46.7071C42.8946 46.5196 43 46.2652 43 46V33C43 32.7348 42.8946 32.4804 42.7071 32.2929C42.5196 32.1054 42.2652 32 42 32Z" fill="white"/>
<defs>
<linearGradient id="paint0_linear_437_234" x1="32.5" y1="0" x2="32.5" y2="65" gradientUnits="userSpaceOnUse">
<stop stop-color="#5BCDFF"/>
<stop offset="1" stop-color="#B0E6FF"/>
</linearGradient>
</defs>
</svg>
