<svg width="65" height="65" viewBox="0 0 65 65" fill="none" xmlns="http://www.w3.org/2000/svg">
<circle cx="32.5" cy="32.5" r="32.5" fill="url(#paint0_linear_437_239)"/>
<path d="M23.3207 31.5201C23.4241 31.5201 23.5233 31.479 23.5964 31.4059C23.6695 31.3328 23.7106 31.2337 23.7106 31.1303C23.7106 31.0269 23.6695 30.9277 23.5964 30.8546C23.5233 30.7815 23.4241 30.7405 23.3207 30.7405C22.9786 30.7388 22.6401 30.6698 22.3246 30.5374C22.0091 30.405 21.7228 30.2117 21.482 29.9686C21.2412 29.7255 21.0506 29.4374 20.9212 29.1206C20.7917 28.8039 20.726 28.4648 20.7276 28.1226C20.7292 27.7805 20.7982 27.442 20.9306 27.1265C21.0631 26.811 21.2563 26.5247 21.4994 26.2839C21.7425 26.0431 22.0307 25.8525 22.3474 25.7231C22.6641 25.5936 23.0032 25.5278 23.3454 25.5294H23.3536C23.4243 25.5329 23.4945 25.5167 23.5563 25.4824C23.6182 25.4481 23.6692 25.3973 23.7037 25.3356C23.739 25.2746 23.7572 25.2053 23.7564 25.1348C23.7555 25.0644 23.7357 24.9955 23.6989 24.9355C23.3181 24.3246 23.1081 23.6227 23.0907 22.903C23.0734 22.1834 23.2493 21.4722 23.6003 20.8437C23.9513 20.2152 24.4644 19.6923 25.0861 19.3295C25.7079 18.9667 26.4156 18.7773 27.1355 18.781C29.3279 18.781 31.1386 20.5678 31.1743 22.7636C31.1752 22.8358 31.1962 22.9064 31.235 22.9673C31.2737 23.0283 31.3287 23.0772 31.3936 23.1087C31.4586 23.1402 31.5311 23.153 31.603 23.1457C31.6748 23.1383 31.7432 23.1111 31.8005 23.0671C32.2499 22.7186 32.802 22.5288 33.3707 22.5273C34.0621 22.528 34.7249 22.8029 35.2138 23.2918C35.7026 23.7807 35.9776 24.4435 35.9783 25.1348C35.9758 25.5274 35.8837 25.9143 35.7091 26.2659C35.6755 26.3366 35.6637 26.4157 35.6753 26.4931C35.6869 26.5704 35.7213 26.6426 35.7741 26.7003C35.8272 26.7578 35.8964 26.798 35.9727 26.8156C36.0489 26.8332 36.1287 26.8274 36.2017 26.799C37.565 26.2659 38.9764 27.3286 38.9764 28.6988C38.9757 29.2401 38.7603 29.7589 38.3776 30.1417C37.9949 30.5244 37.476 30.7397 36.9347 30.7405C36.8313 30.7405 36.7322 30.7815 36.6591 30.8546C36.586 30.9277 36.5449 31.0269 36.5449 31.1303C36.5449 31.2337 36.586 31.3328 36.6591 31.4059C36.7322 31.479 36.8313 31.5201 36.9347 31.5201C37.3162 31.5197 37.6936 31.4419 38.0442 31.2915C38.3948 31.1411 38.7112 30.9211 38.9743 30.6449C39.2375 30.3688 39.4419 30.0421 39.5752 29.6846C39.7085 29.3272 39.7679 28.9465 39.7499 28.5654C39.7318 28.1844 39.6367 27.8109 39.4702 27.4677C39.3038 27.1244 39.0694 26.8185 38.7814 26.5684C38.4933 26.3183 38.1575 26.1292 37.7943 26.0126C37.4311 25.896 37.048 25.8542 36.6682 25.8898C36.7273 25.6429 36.7574 25.39 36.758 25.1362C36.7571 24.2381 36.3999 23.3771 35.7649 22.7421C35.1298 22.107 34.2688 21.7499 33.3707 21.749C32.8599 21.7478 32.3557 21.865 31.8977 22.0915C31.5401 19.7834 29.5272 18 27.1355 18C25.8562 18.0015 24.6297 18.5103 23.7251 19.4149C22.8205 20.3195 22.3116 21.546 22.3102 22.8253C22.3118 23.5046 22.4592 24.1756 22.7425 24.7929C21.907 24.9381 21.1564 25.3913 20.6388 26.063C20.1212 26.7348 19.8744 27.5762 19.947 28.421C20.0197 29.2659 20.4065 30.0528 21.0311 30.6264C21.6558 31.1999 22.4728 31.5183 23.3207 31.5187V31.5201Z" fill="white"/>
<path d="M27.5472 26.4893C27.4438 26.4893 27.3447 26.5303 27.2716 26.6034C27.1984 26.6766 27.1574 26.7757 27.1574 26.8791V32.3518L26.2297 31.4221C26.1954 31.3795 26.1525 31.3445 26.1038 31.3195C26.0551 31.2946 26.0017 31.2801 25.947 31.2772C25.8923 31.2742 25.8377 31.2828 25.7866 31.3024C25.7354 31.322 25.689 31.3521 25.6503 31.3908C25.6116 31.4295 25.5815 31.4759 25.5619 31.527C25.5423 31.5782 25.5337 31.6328 25.5367 31.6875C25.5397 31.7421 25.5541 31.7956 25.5791 31.8443C25.604 31.893 25.639 31.9359 25.6816 31.9702L27.2738 33.5624C27.31 33.5987 27.353 33.6274 27.4003 33.647C27.4477 33.6666 27.4984 33.6767 27.5496 33.6767C27.6008 33.6767 27.6515 33.6666 27.6989 33.647C27.7462 33.6274 27.7892 33.5987 27.8254 33.5624L29.4148 31.9702C29.4575 31.9359 29.4924 31.893 29.5174 31.8443C29.5424 31.7956 29.5568 31.7421 29.5598 31.6875C29.5627 31.6328 29.5541 31.5782 29.5346 31.527C29.515 31.4759 29.4849 31.4295 29.4462 31.3908C29.4074 31.3521 29.361 31.322 29.3099 31.3024C29.2588 31.2828 29.2041 31.2742 29.1495 31.2772C29.0948 31.2801 29.0414 31.2946 28.9927 31.3195C28.944 31.3445 28.901 31.3795 28.8667 31.4221L27.9391 32.3498V26.8764C27.9388 26.8252 27.9285 26.7746 27.9086 26.7274C27.8888 26.6803 27.8598 26.6375 27.8234 26.6015C27.787 26.5656 27.7439 26.5372 27.6965 26.5179C27.6491 26.4986 27.5984 26.4889 27.5472 26.4893Z" fill="white"/>
<path d="M32.1425 33.6829C32.2459 33.6829 32.345 33.6419 32.4181 33.5687C32.4912 33.4956 32.5323 33.3965 32.5323 33.2931V27.8169L33.4606 28.7446C33.4965 28.7809 33.5391 28.8096 33.5862 28.8293C33.6332 28.8489 33.6837 28.859 33.7347 28.859C33.8118 28.859 33.8871 28.8361 33.9511 28.7932C34.0151 28.7503 34.065 28.6893 34.0943 28.6181C34.1237 28.5468 34.1312 28.4685 34.116 28.3929C34.1007 28.3174 34.0634 28.2481 34.0087 28.1938L32.4165 26.6009C32.3435 26.5287 32.2451 26.4883 32.1425 26.4883C32.0399 26.4883 31.9414 26.5287 31.8684 26.6009L30.2755 28.1938C30.2153 28.2687 30.1848 28.3632 30.19 28.4591C30.1952 28.5551 30.2357 28.6458 30.3036 28.7138C30.3716 28.7817 30.4623 28.8222 30.5582 28.8274C30.6542 28.8326 30.7487 28.8021 30.8236 28.7419L31.7506 27.8149V33.2869C31.7498 33.3388 31.7593 33.3903 31.7787 33.4385C31.798 33.4866 31.8268 33.5304 31.8633 33.5673C31.8998 33.6042 31.9433 33.6334 31.9912 33.6533C32.0392 33.6731 32.0906 33.6832 32.1425 33.6829Z" fill="white"/>
<path d="M47.9805 46.6093L46.7316 42.3842C46.7168 42.3338 46.692 42.287 46.6587 42.2465C46.6254 42.206 46.5842 42.1727 46.5377 42.1485C46.4908 42.1246 46.4396 42.1103 46.3872 42.1064C46.3347 42.1025 46.282 42.1092 46.2321 42.1259L44.7653 42.6253L44.0801 40.4042C43.7831 39.4417 43.2554 38.5664 42.5431 37.8543C41.8308 37.1422 40.9553 36.6149 39.9927 36.3181L35.5175 34.9349C34.2433 34.5341 32.8792 34.5181 31.5959 34.889C29.792 35.4172 27.5023 36.4003 26.5809 38.0789L20.188 36.5237C19.759 36.4231 19.308 36.485 18.922 36.6976C18.5361 36.9101 18.2426 37.2582 18.0982 37.6745C17.9539 38.0908 17.969 38.5459 18.1407 38.9517C18.3123 39.3575 18.6282 39.6854 19.0274 39.8718L28.3039 44.1141C28.8115 44.3465 29.3738 44.4327 29.9277 44.3628L38.1977 43.3351L38.6643 44.5916C38.6824 44.6246 38.7055 44.6547 38.7328 44.6807L36.6774 45.3809C36.5821 45.4132 36.503 45.4812 36.4567 45.5707C36.4105 45.6601 36.4007 45.764 36.4294 45.8604L37.1831 48.405C37.2065 48.4858 37.2556 48.5569 37.323 48.6074C37.3903 48.658 37.4723 48.6853 37.5565 48.6852C37.5938 48.6849 37.6309 48.6796 37.6668 48.6694C37.7659 48.6401 37.8493 48.5725 37.8986 48.4817C37.9479 48.3909 37.9592 48.2842 37.9298 48.1851L37.2851 45.9988L46.1026 42.9967L47.2372 46.8333C47.2665 46.9323 47.334 47.0157 47.4248 47.0649C47.5155 47.1142 47.6222 47.1254 47.7212 47.0961C47.8202 47.0667 47.9036 46.9992 47.9528 46.9085C48.0021 46.8177 48.0133 46.7111 47.9839 46.612L47.9805 46.6093ZM39.3933 44.3162L38.8184 42.7699C38.7875 42.6883 38.7303 42.6193 38.6559 42.5738C38.5815 42.5283 38.4941 42.5088 38.4074 42.5184L29.829 43.5865C29.4186 43.6382 29.0019 43.5741 28.6259 43.4016L19.3494 39.16C19.1227 39.0568 18.9425 38.8727 18.8444 38.6437C18.7462 38.4148 18.737 38.1574 18.8185 37.922C18.9001 37.6866 19.0666 37.4901 19.2854 37.371C19.5043 37.2518 19.7597 37.2187 20.0017 37.278L26.3445 38.8215C26.3378 39.0215 26.3746 39.2205 26.4522 39.4049C26.5299 39.5893 26.6465 39.7547 26.7942 39.8897C26.9419 40.0247 27.117 40.126 27.3077 40.1868C27.4983 40.2476 27.6998 40.2664 27.8983 40.2418L36.3733 39.2326C36.4243 39.2268 36.4736 39.2109 36.5185 39.1859C36.5634 39.1609 36.6028 39.1273 36.6347 39.087C36.6665 39.0467 36.6901 39.0005 36.704 38.951C36.7179 38.9016 36.7219 38.8499 36.7158 38.7989C36.7028 38.6967 36.6502 38.6036 36.5694 38.5396C36.4887 38.4756 36.386 38.4457 36.2835 38.4564L27.8093 39.4635C27.6996 39.4762 27.5885 39.4593 27.4875 39.4148C27.3865 39.3702 27.2992 39.2995 27.2346 39.2099C27.17 39.1203 27.1305 39.0151 27.1201 38.9052C27.1097 38.7953 27.1289 38.6846 27.1755 38.5845C27.7408 37.3897 29.3885 36.3407 31.8145 35.6303C32.9512 35.3014 34.1598 35.3164 35.288 35.6734L39.7625 37.056C40.6043 37.3157 41.3698 37.7772 41.9925 38.4002C42.6152 39.0233 43.0762 39.7891 43.3354 40.6309L44.0288 42.8733L39.4152 44.4443C39.4154 44.4007 39.408 44.3573 39.3933 44.3162Z" fill="white"/>
<defs>
<linearGradient id="paint0_linear_437_239" x1="32.5" y1="0" x2="32.5" y2="65" gradientUnits="userSpaceOnUse">
<stop stop-color="#FFAD3A"/>
<stop offset="1" stop-color="#FFCD89"/>
</linearGradient>
</defs>
</svg>
