<svg width="92" height="87" viewBox="0 0 92 87" fill="none" xmlns="http://www.w3.org/2000/svg">
<path d="M89.6905 18.4784C90.9713 17.2603 91.4212 15.591 90.8701 14.1187C90.3084 12.632 88.8855 11.6374 87.0646 11.459L79.9873 10.7761L79.2641 4.01717C79.0725 2.2782 78.0221 0.926809 76.4573 0.403905C74.9247 -0.112862 73.164 0.32599 71.9006 1.53178L61.2609 11.662C61.02 11.8937 60.8218 12.1808 60.6174 12.4597C54.8531 9.54778 48.2924 7.8806 41.3271 7.8806C18.5369 7.8806 0 25.5429 0 47.2532C0 68.9635 18.5369 86.6257 41.3271 86.6257C64.1108 86.6257 82.652 68.9635 82.652 47.2532C82.652 40.7977 80.9818 34.7175 78.0802 29.3346C78.4311 29.111 78.7776 28.8772 79.0596 28.6066L89.6905 18.4784ZM76.4357 26.5887C76.0289 26.8881 75.5102 27.124 74.957 27.2696C74.5137 27.3864 74.0637 27.4582 73.6677 27.4213L73.0672 27.3639L67.46 26.8225L64.1646 29.9621L62.9938 31.0776L61.8055 32.2096L56.3039 37.4531L55.1179 38.581L53.9125 39.7314L49.3149 44.1116L49.6162 45.0241C50.5762 47.934 49.7798 51.0695 47.5304 53.2082C45.9161 54.7483 43.7766 55.5972 41.495 55.5972H41.4907C39.2091 55.5972 37.0609 54.7463 35.4466 53.2021C33.8366 51.6682 32.9497 49.6257 32.9497 47.45C32.9497 45.2723 33.8366 43.2298 35.4509 41.6918C37.0222 40.1928 39.2134 39.3336 41.4692 39.3336C42.3473 39.3336 43.2126 39.4586 44.0435 39.7067L44.9992 39.9939L49.6808 35.5337L50.8646 34.4058L52.0377 33.2862L57.5415 28.0447L58.7275 26.9127L59.8984 25.7971L63.1465 22.7027L62.5632 17.2213L62.518 16.8071C62.4749 16.3888 62.5567 15.9109 62.7053 15.4454C62.871 14.9225 63.1336 14.4365 63.4629 14.0633C63.5124 14.0059 63.5512 13.9341 63.6028 13.8849L74.2403 3.75879C74.6019 3.41018 74.998 3.25636 75.3595 3.37326C75.8374 3.53321 75.9493 4.10738 75.9752 4.34118L76.9696 13.6511L86.7288 14.5924C86.9806 14.617 87.5855 14.7236 87.7576 15.1809C87.876 15.4988 87.7275 15.8986 87.3551 16.2514L76.7199 26.3816C76.6423 26.4554 76.5305 26.519 76.4357 26.5887ZM41.3271 83.476C20.3622 83.476 3.30614 67.2266 3.30614 47.2532C3.30614 27.2798 20.3622 11.0304 41.3271 11.0304C47.8426 11.0304 53.9792 12.6033 59.3453 15.3675C59.229 15.9622 59.1688 16.5569 59.2269 17.1208L59.6983 21.5339L57.1885 23.9249C52.6167 21.093 47.1753 19.4299 41.3271 19.4299C25.2224 19.4299 12.1226 31.9102 12.1226 47.2532C12.1226 62.5962 25.2224 75.0765 41.3271 75.0765C57.4275 75.0765 70.5294 62.5962 70.5294 47.2532C70.5294 41.8661 68.8872 36.8482 66.0932 32.5828L68.6913 30.1077L73.3319 30.5547C73.87 30.606 74.4318 30.5732 74.998 30.487C77.7617 35.507 79.3458 41.2037 79.3458 47.2532C79.3458 67.2266 62.2898 83.476 41.3271 83.476ZM53.0365 45.0221L55.4213 42.7499C55.9207 44.1669 56.2028 45.6783 56.2028 47.2532C56.2028 55.0702 49.5279 61.4273 41.3271 61.4273C33.1219 61.4273 26.4493 55.0702 26.4493 47.2532C26.4493 39.4361 33.1219 33.0791 41.3271 33.0791C43.1847 33.0791 44.9561 33.4194 46.5985 34.0162L44.0435 36.4503C40.1648 35.6301 35.9029 36.801 33.1133 39.4648C30.8748 41.5954 29.6436 44.4315 29.6436 47.45C29.6436 50.4666 30.8748 53.3005 33.1047 55.4271C35.3433 57.568 38.3223 58.7471 41.495 58.7471C44.6591 58.7471 47.6338 57.57 49.8659 55.4353C52.7481 52.6957 53.9168 48.783 53.0365 45.0221ZM41.3271 29.9292C31.301 29.9292 23.1432 37.7012 23.1432 47.2532C23.1432 56.8052 31.301 64.5771 41.3271 64.5771C51.351 64.5771 59.5088 56.8052 59.5088 47.2532C59.5088 44.7862 58.9557 42.4423 57.9763 40.3158L63.691 34.8713C65.9232 38.5174 67.2232 42.7377 67.2232 47.2532C67.2232 60.8572 55.6043 71.9266 41.3271 71.9266C27.0434 71.9266 15.4288 60.8572 15.4288 47.2532C15.4288 33.6491 27.0434 22.5797 41.3271 22.5797C46.2605 22.5797 50.856 23.9249 54.7864 26.2155L49.1103 31.621C46.747 30.5485 44.1145 29.9292 41.3271 29.9292Z" fill="#45C3BE"/>
</svg>
