<svg width="72" height="82" viewBox="0 0 72 82" fill="none" xmlns="http://www.w3.org/2000/svg">
<rect width="71.1851" height="81.0436" rx="12.848" fill="#092332"/>
<path d="M28.8831 53.103C26.5707 53.103 24.6895 51.2218 24.6895 48.9094H26.3669C26.3669 50.2967 27.4958 51.4256 28.8831 51.4256C30.2703 51.4256 31.3992 50.2967 31.3992 48.9094H33.0767C33.0767 51.2218 31.1954 53.103 28.8831 53.103Z" fill="white"/>
<path d="M42.303 53.103C39.9906 53.103 38.1094 51.2218 38.1094 48.9094H39.7868C39.7868 50.2967 40.9157 51.4256 42.303 51.4256C43.6902 51.4256 44.8192 50.2967 44.8192 48.9094H46.4966C46.4966 51.2218 44.6154 53.103 42.303 53.103Z" fill="white"/>
<path d="M41.4643 31.2961C41.4643 28.02 38.7821 25.3714 35.4935 25.4259C32.4288 25.477 29.8363 28.0167 29.7256 31.0797C29.6719 32.5768 30.1793 33.9515 31.0541 35.0142C32.292 36.518 33.0771 38.3405 33.0771 40.2881V42.1995H38.1094V40.5699C38.1094 38.4923 38.9305 36.5448 40.2146 34.911C40.9972 33.9163 41.4643 32.6615 41.4643 31.2961Z" fill="#FBC042"/>
<path d="M36.4314 31.2961H34.7539V32.9736H36.4314V31.2961Z" fill="white"/>
<path d="M49.0123 45.5544H48.1735V54.5179C48.1735 56.0855 47.5629 57.5599 46.4541 58.6687L41.015 64.1078C40.5395 64.5834 39.9079 64.8451 39.2353 64.8451H31.9501C31.2774 64.8451 30.6451 64.5834 30.1703 64.1078L24.7312 58.6687C23.6224 57.5599 23.0118 56.0855 23.0118 54.5179V45.5544H22.1731C19.8607 45.5544 17.9795 47.4357 17.9795 49.7481C17.9795 51.7736 19.4229 53.4678 21.3344 53.857V54.517C21.3344 56.5333 22.1194 58.4288 23.5453 59.8538L28.9844 65.293C29.7761 66.0847 30.8296 66.5217 31.9501 66.5217H39.2353C40.3558 66.5217 41.4092 66.0847 42.201 65.293L47.6401 59.8538C49.0659 58.4288 49.851 56.5333 49.851 54.517V53.857C51.7624 53.467 53.2059 51.7736 53.2059 49.7481C53.2059 47.4357 51.3246 45.5544 49.0123 45.5544ZM21.3344 52.1208C20.3581 51.7744 19.6569 50.8418 19.6569 49.7481C19.6569 48.6544 20.3581 47.7217 21.3344 47.3753V52.1208ZM49.851 52.1208V47.3753C50.8272 47.7217 51.5284 48.6544 51.5284 49.7481C51.5284 50.8418 50.8272 51.7744 49.851 52.1208Z" fill="white"/>
<path d="M29.3019 33.8124H29.3799C29.6323 34.4339 29.9728 35.021 30.4065 35.5477C31.6041 37.0029 32.2374 38.6417 32.2374 40.2881V43.0383H38.9472V40.5708C38.9472 38.8095 39.6131 37.0322 40.8729 35.4303C41.2646 34.9321 41.5606 34.3844 41.7938 33.8124H41.8827C46.2759 33.8124 49.8506 30.2377 49.8506 25.8445C49.8506 21.4513 46.2759 17.8766 41.8827 17.8766H38.9472V14.5217H37.2697V17.5042C36.774 17.2157 36.2062 17.0379 35.5923 17.0379C34.9783 17.0379 34.4105 17.2157 33.9148 17.5042V14.5217H32.2374V17.8766H29.3019C24.9086 17.8766 21.334 21.4513 21.334 25.8445C21.334 30.2377 24.9086 33.8124 29.3019 33.8124ZM37.2697 41.3609H33.9148V40.5221H37.2722C37.2722 40.5381 37.2697 40.554 37.2697 40.5708V41.3609ZM39.5544 34.3928C38.4624 35.7808 37.752 37.2947 37.445 38.8447H36.431V34.6511H34.7536V38.8447H33.7832C33.5097 37.3098 32.806 35.8228 31.7014 34.4808C30.9231 33.5356 30.5188 32.3387 30.5633 31.1092C30.6572 28.4814 32.8748 26.3075 35.5067 26.2639C36.8772 26.2446 38.1521 26.7537 39.1216 27.7073C40.0904 28.6618 40.6246 29.9358 40.6246 31.2962C40.6246 32.4318 40.2547 33.5029 39.5544 34.3928ZM40.2967 26.5121C39.0319 25.2674 37.3653 24.5864 35.5931 24.5864C35.5554 24.5864 35.5168 24.5864 35.4782 24.5872C32.7675 24.6325 30.393 26.3754 29.3924 28.78H29.3019C27.6831 28.78 26.3663 27.4632 26.3663 25.8445C26.3663 24.2258 27.6831 22.909 29.3019 22.909H33.3965C33.9861 23.4248 34.7485 23.7477 35.5923 23.7477C36.436 23.7477 37.1976 23.4248 37.7881 22.909H41.8827C43.5014 22.909 44.8182 24.2258 44.8182 25.8445C44.8182 27.4632 43.5014 28.78 41.8827 28.78H41.8131C41.4734 27.9396 40.9643 27.1688 40.2967 26.5121ZM48.1731 25.8445C48.1731 29.1944 45.5395 31.9328 42.235 32.1173C42.2677 31.8456 42.3021 31.5746 42.3021 31.2962C42.3021 31.0068 42.2777 30.7217 42.2417 30.439C44.6169 30.2553 46.4957 28.2667 46.4957 25.8445C46.4957 23.3006 44.4257 21.2315 41.8827 21.2315H38.8281C38.8985 20.9614 38.9472 20.6838 38.9472 20.3928C38.9472 20.1018 38.8985 19.8241 38.8281 19.5541H41.8827C45.3517 19.5541 48.1731 22.3755 48.1731 25.8445ZM35.5923 18.7153C36.5174 18.7153 37.2697 19.4677 37.2697 20.3928C37.2697 21.3179 36.5174 22.0702 35.5923 22.0702C34.6672 22.0702 33.9148 21.3179 33.9148 20.3928C33.9148 19.4677 34.6672 18.7153 35.5923 18.7153ZM29.3019 19.5541H32.3565C32.286 19.8241 32.2374 20.1018 32.2374 20.3928C32.2374 20.6838 32.286 20.9614 32.3565 21.2315H29.3019C26.7588 21.2315 24.6889 23.3006 24.6889 25.8445C24.6889 28.2659 26.5659 30.2537 28.9404 30.439C28.9144 30.6403 28.8951 30.8433 28.8875 31.0496C28.8741 31.4086 28.8951 31.7642 28.9387 32.1165C25.6392 31.9269 23.0114 29.191 23.0114 25.8445C23.0114 22.3755 25.8329 19.5541 29.3019 19.5541Z" fill="white"/>
<path d="M35.5923 46.3931C37.9734 46.3931 49.8506 46.2321 49.8506 43.0382C49.8506 41.3985 46.7674 40.3325 40.6884 39.8704L40.5609 41.5436C45.4204 41.9118 47.4527 42.6608 48.0381 43.0424C47.087 43.6866 42.8858 44.7157 35.5923 44.7157C28.2987 44.7157 24.0976 43.6866 23.1465 43.0424C23.7319 42.6608 25.7641 41.9118 30.6237 41.5436L30.4962 39.8704C24.4171 40.3325 21.334 41.3985 21.334 43.0382C21.334 46.2321 33.2111 46.3931 35.5923 46.3931Z" fill="white"/>
</svg>
