<svg width="72" height="65" viewBox="0 0 72 65" fill="none" xmlns="http://www.w3.org/2000/svg">
<rect width="71.9178" height="64.9999" rx="12.848" fill="#092332"/>
<path d="M40.017 19.1612C40.017 16.8959 38.1624 15.0644 35.8884 15.1021C33.7693 15.1375 31.9767 16.8936 31.9001 19.0115C31.863 20.0467 32.2139 20.9973 32.8188 21.732C33.6748 22.7719 34.2176 24.0321 34.2176 25.3787V26.7004H37.6973V25.5736C37.6973 24.1371 38.265 22.7904 39.1529 21.6607C39.694 20.9729 40.017 20.1053 40.017 19.1612Z" fill="#F1A832"/>
<path d="M17.9795 44.0987C17.9795 45.6976 19.2803 46.9984 20.8792 46.9984H27.8385V49.3182H25.5188V50.4781H46.3967V49.3182H44.0769V46.9984H51.0363C52.6352 46.9984 53.936 45.6976 53.936 44.0987V42.3589H17.9795V44.0987ZM42.9171 49.3182H28.9984V46.9984H42.9171V49.3182ZM19.1394 43.5188H52.7761V44.0987C52.7761 45.0579 51.9955 45.8385 51.0363 45.8385H20.8792C19.92 45.8385 19.1394 45.0579 19.1394 44.0987V43.5188Z" fill="white"/>
<path d="M19.1394 23.221C19.1394 22.2618 19.92 21.4812 20.8792 21.4812H30.1583V20.3213H20.8792C19.2803 20.3213 17.9795 21.6221 17.9795 23.221V41.1993H19.1394V23.221Z" fill="white"/>
<path d="M51.0389 20.3213H41.7598V21.4812H51.0389C51.9981 21.4812 52.7787 22.2618 52.7787 23.221V41.1993H53.9386V23.221C53.9386 21.6221 52.6378 20.3213 51.0389 20.3213Z" fill="white"/>
<path d="M46.979 40.0394H24.9411V23.801H30.1606V22.6411H23.7812V41.1993H48.1389V22.6411H41.7595V23.801H46.979V40.0394Z" fill="white"/>
<path d="M33.6397 25.3788V27.2805H38.2792V25.5743C38.2792 24.3564 38.7397 23.1275 39.6108 22.0198C40.2574 21.1975 40.599 20.2092 40.599 19.1613C40.599 17.9074 40.1066 16.7325 39.2124 15.8533C38.3378 14.9926 37.1855 14.5217 35.96 14.5217C35.9339 14.5217 35.9073 14.5217 35.8806 14.5223C33.4541 14.5623 31.4098 16.5672 31.3234 18.9908C31.2822 20.124 31.6551 21.2282 32.3737 22.101C33.2018 23.1072 33.6397 24.2404 33.6397 25.3788ZM37.1193 26.1206H34.7996V25.5407H37.1211C37.1211 25.5517 37.1193 25.5627 37.1193 25.5743V26.1206ZM35.8997 15.6822C36.8474 15.6619 37.7289 16.0209 38.3993 16.6803C39.0697 17.3397 39.4391 18.2206 39.4391 19.1613C39.4391 19.9465 39.1834 20.6871 38.6991 21.3024C37.944 22.2622 37.4528 23.309 37.2406 24.3808H36.5394V21.481H35.3795V24.3808H34.7085C34.5195 23.3195 34.0329 22.2912 33.2691 21.3633C32.7309 20.7097 32.4514 19.8821 32.4821 19.0319C32.5471 17.2156 34.0804 15.7124 35.8997 15.6822Z" fill="white"/>
<path d="M35.9566 28.4405C35.6365 28.4405 35.3767 28.1801 35.3767 27.8606H34.2168C34.2168 28.8198 34.9974 29.6004 35.9566 29.6004C36.9159 29.6004 37.6965 28.8198 37.6965 27.8606H36.5366C36.5366 28.1801 36.2768 28.4405 35.9566 28.4405Z" fill="white"/>
<path d="M36.5388 19.1611H35.3789V20.321H36.5388V19.1611Z" fill="white"/>
<path d="M35.9599 35.3998C38.518 35.3998 40.5994 33.3184 40.5994 30.7603C40.5994 29.5041 40.1053 28.3274 39.2087 27.4482L38.3968 28.2764C39.0689 28.9358 39.4395 29.8179 39.4395 30.7603C39.4395 32.6793 37.8789 34.24 35.9599 34.24C34.0408 34.24 32.4802 32.6793 32.4802 30.7603C32.4802 29.844 32.8328 28.9793 33.4742 28.3257L32.6461 27.5138C31.7912 28.3854 31.3203 29.5389 31.3203 30.7603C31.3203 33.3184 33.4017 35.3998 35.9599 35.3998Z" fill="white"/>
<path d="M38.1525 38.8796H33.767L33.3483 37.2053C33.3152 37.192 33.2822 37.1781 33.2491 37.1642L31.7685 38.0521L28.9883 35.2718L29.8083 34.4518L31.9483 36.5918L33.179 35.8535L33.4596 35.9875C33.6452 36.0762 33.8343 36.1551 34.0291 36.2235L34.3238 36.3273L34.6729 37.7197H37.2467L37.5952 36.3273L37.8898 36.2235C38.0847 36.1551 38.2738 36.0762 38.4593 35.9875L38.74 35.8535L39.9707 36.5918L41.7911 34.7719L41.0528 33.5407L41.1874 33.2594C41.2755 33.075 41.3544 32.8848 41.4234 32.6899L41.5272 32.3964L42.9191 32.0485V29.4747L41.5272 29.1267L41.4234 28.8333C41.3544 28.6384 41.2755 28.4482 41.1874 28.2638L42.233 27.7627C42.2939 27.8897 42.3513 28.0196 42.4047 28.1507L44.079 28.5677V32.9532L42.4041 33.3719C42.3908 33.4055 42.3769 33.438 42.3635 33.4711L43.2508 34.9517L40.1505 38.0521L38.6699 37.1642C38.6368 37.1781 38.6037 37.192 38.5707 37.2053L38.1525 38.8796Z" fill="white"/>
<path d="M29.6874 33.7595C29.6265 33.6325 29.5691 33.5026 29.5157 33.3716L27.8408 32.9528V28.5673L29.5157 28.1486C29.529 28.115 29.543 28.0825 29.5563 28.0494L28.669 26.5688L31.4492 23.7886L32.2693 24.6086L30.1293 26.7486L30.8675 27.9798L30.733 28.2611C30.6448 28.4455 30.566 28.6357 30.497 28.8306L30.3926 29.1252L29.0007 29.4732V32.047L30.3926 32.3949L30.4964 32.6884C30.5654 32.8832 30.6443 33.0735 30.7324 33.2579L29.6874 33.7595Z" fill="white"/>
<path d="M40.4686 23.789L39.6484 24.6091L42.1085 27.0692L42.9287 26.249L40.4686 23.789Z" fill="white"/>
</svg>
