<svg width="72" height="65" viewBox="0 0 72 65" fill="none" xmlns="http://www.w3.org/2000/svg">
<rect width="71.9187" height="65.0036" rx="12.848" fill="#092332"/>
<path d="M41.761 25.5416H30.161C29.5201 25.5416 29.001 25.0225 29.001 24.3816V20.3216C29.001 19.6807 29.5201 19.1616 30.161 19.1616H41.761C42.4019 19.1616 42.921 19.6807 42.921 20.3216V24.3816C42.921 25.0225 42.4019 25.5416 41.761 25.5416Z" fill="#F1A832"/>
<path d="M39.4413 36.562H32.4813C31.8404 36.562 31.3213 37.0811 31.3213 37.722V41.202H40.6013V37.722C40.6013 37.0811 40.0822 36.562 39.4413 36.562Z" fill="#F1A832"/>
<path d="M17.9795 44.1018C17.9795 45.7009 19.2804 47.0018 20.8795 47.0018H27.8395V49.3218H25.5195V50.4818H46.3995V49.3218H44.0795V47.0018H51.0395C52.6386 47.0018 53.9395 45.7009 53.9395 44.1018V42.3618H17.9795V44.1018ZM42.9195 49.3218H28.9995V47.0018H42.9195V49.3218ZM19.1395 43.5218H52.7795V44.1018C52.7795 45.0611 51.9988 45.8418 51.0395 45.8418H20.8795C19.9202 45.8418 19.1395 45.0611 19.1395 44.1018V43.5218Z" fill="white"/>
<path d="M19.1395 23.2218C19.1395 22.2625 19.9202 21.4818 20.8795 21.4818H24.9395V20.3218H20.8795C19.2804 20.3218 17.9795 21.6227 17.9795 23.2218V41.2018H19.1395V23.2218Z" fill="white"/>
<path d="M51.0381 20.3218V21.4818C51.9974 21.4818 52.7781 22.2625 52.7781 23.2218V41.2018H53.9381V23.2218C53.9381 21.6227 52.6371 20.3218 51.0381 20.3218Z" fill="white"/>
<path d="M28.4188 33.3271L33.0588 32.3967V30.7617H31.8988V31.4467L27.2588 32.3764V41.2017H28.4188V33.3271Z" fill="white"/>
<path d="M44.6604 41.2017V32.6299L40.0204 31.4687V30.7617H38.8604V32.3747L43.5004 33.5359V41.2017H44.6604Z" fill="white"/>
<path d="M26.1011 33.6617V32.5017H23.7811C23.1414 32.5017 22.6211 33.022 22.6211 33.6617V38.3017C22.6211 38.9414 23.1414 39.4617 23.7811 39.4617V41.2017H24.9411V39.4617H26.1011V38.3017H23.7811V33.6617H26.1011Z" fill="white"/>
<path d="M46.9793 41.2017H48.1393V39.4617C48.7791 39.4617 49.2993 38.9414 49.2993 38.3017V33.6617C49.2993 33.022 48.7791 32.5017 48.1393 32.5017H45.8193V33.6617H48.1393V38.3017H45.8193V39.4617H46.9793V41.2017Z" fill="white"/>
<path d="M29.8154 26.0869C30.5729 28.8199 33.0872 30.7617 35.9599 30.7617C38.8327 30.7617 41.347 28.8199 42.1044 26.0869C42.8996 25.9263 43.4999 25.2233 43.4999 24.3817V20.3217C43.4999 19.4123 42.7964 18.6722 41.9067 18.5968C40.9601 16.144 38.6215 14.5217 35.9599 14.5217C33.2983 14.5217 30.9597 16.144 30.0132 18.5968C29.1235 18.6722 28.4199 19.4123 28.4199 20.3217V24.3817C28.4199 25.2233 29.0202 25.9263 29.8154 26.0869ZM35.9599 29.6017C33.7321 29.6017 31.7694 28.1738 31.0427 26.1217H40.8766C40.1504 28.1738 38.1877 29.6017 35.9599 29.6017ZM35.9599 15.6817C37.9772 15.6817 39.7682 16.8197 40.637 18.5817H31.2828C32.1516 16.8197 33.9427 15.6817 35.9599 15.6817ZM29.5799 20.3217C29.5799 20.0021 29.8398 19.7417 30.1599 19.7417H41.7599C42.0801 19.7417 42.3399 20.0021 42.3399 20.3217V24.3817C42.3399 24.7013 42.0801 24.9617 41.7599 24.9617H30.1599C29.8398 24.9617 29.5799 24.7013 29.5799 24.3817V20.3217Z" fill="white"/>
<path d="M33.3494 23.8016C34.1492 23.8016 34.7994 23.1509 34.7994 22.3516C34.7994 21.5524 34.1492 20.9016 33.3494 20.9016C32.5496 20.9016 31.8994 21.5524 31.8994 22.3516C31.8994 23.1509 32.5496 23.8016 33.3494 23.8016ZM33.3494 22.0616C33.5089 22.0616 33.6394 22.1915 33.6394 22.3516C33.6394 22.5117 33.5089 22.6416 33.3494 22.6416C33.1899 22.6416 33.0594 22.5117 33.0594 22.3516C33.0594 22.1915 33.1899 22.0616 33.3494 22.0616Z" fill="white"/>
<path d="M38.5682 23.8016C39.368 23.8016 40.0182 23.1509 40.0182 22.3516C40.0182 21.5524 39.368 20.9016 38.5682 20.9016C37.7683 20.9016 37.1182 21.5524 37.1182 22.3516C37.1182 23.1509 37.7683 23.8016 38.5682 23.8016ZM38.5682 22.0616C38.7277 22.0616 38.8582 22.1915 38.8582 22.3516C38.8582 22.5117 38.7277 22.6416 38.5682 22.6416C38.4087 22.6416 38.2782 22.5117 38.2782 22.3516C38.2782 22.1915 38.4087 22.0616 38.5682 22.0616Z" fill="white"/>
<path d="M41.1802 41.2017V37.7217C41.1802 36.7624 40.3996 35.9817 39.4402 35.9817H32.4802C31.5209 35.9817 30.7402 36.7624 30.7402 37.7217V41.2017H31.9002V37.7217C31.9002 37.4021 32.1601 37.1417 32.4802 37.1417H39.4402C39.7604 37.1417 40.0202 37.4021 40.0202 37.7217V41.2017H41.1802Z" fill="white"/>
<path d="M33.0586 41.2018H34.2186C34.2186 40.2424 34.9993 39.4618 35.9586 39.4618C36.9179 39.4618 37.6986 40.2424 37.6986 41.2018H38.8586C38.8586 39.6027 37.5577 38.3018 35.9586 38.3018C34.3595 38.3018 33.0586 39.6027 33.0586 41.2018Z" fill="white"/>
<path d="M44.6572 24.7401V17.4216H51.6172V23.2216H47.6941L44.6572 24.7401ZM45.8172 18.5816V22.8632L47.4203 22.0616H50.4572V18.5816H45.8172Z" fill="white"/>
<path d="M49.3005 19.7417H46.9805V20.9017H49.3005V19.7417Z" fill="white"/>
<path d="M27.2608 31.3416H20.3008V25.5416H24.2239L27.2608 24.0232V31.3416ZM21.4608 30.1816H26.1008V25.9001L24.4977 26.7016H21.4608V30.1816Z" fill="white"/>
<path d="M24.9382 27.8618H22.6182V29.0218H24.9382V27.8618Z" fill="white"/>
</svg>
