<svg width="72" height="65" viewBox="0 0 72 65" fill="none" xmlns="http://www.w3.org/2000/svg">
<rect width="71.9187" height="64.9917" rx="12.848" fill="#092332"/>
<path d="M29.7503 35.6168C29.5991 35.3164 29.4676 35.0045 29.3605 34.681L26.6885 34.2351V30.7563L29.3605 30.3104C29.4676 29.9869 29.5991 29.6749 29.7503 29.3746L28.1742 27.1661L30.6319 24.706L32.8382 26.2836C33.1382 26.1323 33.4498 26.0007 33.773 25.8934L34.2185 23.2188H37.6938L38.1393 25.8934C38.4625 26.0007 38.7741 26.1323 39.0741 26.2836L41.2804 24.706L43.7381 27.1661L42.162 29.3746C42.3132 29.6749 42.4447 29.9869 42.5518 30.3104L45.2238 30.7563V34.2351L42.5518 34.681C42.4447 35.0045 42.3132 35.3164 42.162 35.6168L43.7381 37.8253L41.2804 40.2854L39.0741 38.7077C38.7741 38.8591 38.4625 38.9913 38.1393 39.098L37.6938 41.7726H34.2185L33.773 39.098C33.4498 38.9907 33.1382 38.8591 32.8382 38.7077L30.6319 40.2854L28.1742 37.8253L29.7503 35.6168Z" fill="#F1A832"/>
<path d="M35.9533 37.7141C38.8274 37.7141 41.1664 35.3734 41.1664 32.4959C41.1664 29.6183 38.8274 27.2776 35.9533 27.2776C33.0792 27.2776 30.7402 29.6183 30.7402 32.4959C30.7402 35.3734 33.0792 37.7141 35.9533 37.7141ZM35.3741 32.4959C35.3741 32.1758 35.6341 31.9161 35.9533 31.9161C36.2724 31.9161 36.5325 32.1758 36.5325 32.4959C36.5325 32.8159 36.2724 33.0757 35.9533 33.0757C35.6341 33.0757 35.3741 32.8159 35.3741 32.4959ZM35.9533 28.4372C38.1891 28.4372 40.0079 30.2584 40.0079 32.4959C40.0079 34.5362 38.4944 36.2252 36.5325 36.5081V34.1286C37.205 33.8886 37.691 33.2508 37.691 32.4959C37.691 31.5369 36.9113 30.7564 35.9533 30.7564C34.9953 30.7564 34.2156 31.5369 34.2156 32.4959C34.2156 33.2508 34.7016 33.8886 35.3741 34.1286V36.5081C33.4122 36.2252 31.8987 34.5362 31.8987 32.4959C31.8987 30.2584 33.7175 28.4372 35.9533 28.4372Z" fill="white"/>
<path d="M42.6769 29.114L41.6424 29.6358C41.786 29.9205 41.9065 30.2093 41.9997 30.4928L42.1092 30.825L44.6422 31.2483V33.7444L42.1092 34.167L41.9997 34.4993C41.9065 34.7822 41.786 35.071 41.6424 35.3562L41.4848 35.6693L42.9792 37.763L41.216 39.5285L39.1239 38.0326L38.8117 38.1898C38.5261 38.3335 38.2377 38.4541 37.955 38.5475L37.6231 38.6571L37.2008 41.1932H34.7067L34.2844 38.6577L33.9525 38.5481C33.6699 38.4547 33.3814 38.3341 33.0958 38.1903L32.7836 38.0332L30.6915 39.5291L28.5807 37.4163L27.7617 38.2361L30.5669 41.0424L32.8954 39.3778C33.0153 39.4317 33.1358 39.4821 33.2557 39.5285L33.7255 42.3528H38.182L38.6524 39.5285C38.7723 39.4821 38.8928 39.4317 39.0127 39.3778L41.3412 41.0424L44.4927 37.8888L42.8292 35.5574C42.8831 35.4374 42.9335 35.3174 42.9798 35.1968L45.8006 34.7271V30.2655L42.9798 29.7953C42.8918 29.5674 42.7904 29.3396 42.6769 29.114Z" fill="white"/>
<path d="M26.1074 30.265V34.7267L28.9283 35.1969C29.0163 35.4248 29.1177 35.6526 29.2312 35.8782L30.2657 35.3563C30.1221 35.0717 30.0016 34.7829 29.9083 34.4994L29.7988 34.1672L27.2659 33.7439V31.2478L29.7988 30.8251L29.9083 30.4929C30.0016 30.21 30.1221 29.9212 30.2657 29.6359L30.4233 29.3229L28.9288 27.2292L30.692 25.4637L32.7842 26.9596L33.097 26.8018C33.3791 26.6592 33.6669 26.5392 33.9531 26.4447L34.285 26.3351L34.7072 23.799H37.2014L37.6237 26.3345L37.9556 26.4441C38.2417 26.5386 38.5296 26.6586 38.8117 26.8013L39.1244 26.959L41.2166 25.4631L43.3273 27.5759L44.1464 26.756L41.3411 23.9486L39.0126 25.6138C38.8927 25.5599 38.7728 25.51 38.6524 25.4631L38.1826 22.6394H33.726L33.2557 25.4631C33.1352 25.51 33.0147 25.5599 32.8954 25.6138L30.5669 23.9486L27.4153 27.1033L29.0789 29.4348C29.025 29.5548 28.9746 29.6748 28.9283 29.7954L26.1074 30.265Z" fill="white"/>
<path d="M36.5325 24.9585H35.374V26.1181H36.5325V24.9585Z" fill="white"/>
<path d="M31.0393 26.7556L30.2197 27.5759L31.0393 28.3963L31.8588 27.5759L31.0393 26.7556Z" fill="white"/>
<path d="M29.5813 31.916H28.4229V33.0756H29.5813V31.916Z" fill="white"/>
<path d="M31.0393 36.5949L30.2197 37.4153L31.0393 38.2357L31.8588 37.4153L31.0393 36.5949Z" fill="white"/>
<path d="M36.5325 38.8738H35.374V40.0334H36.5325V38.8738Z" fill="white"/>
<path d="M40.8694 36.5952L40.0498 37.4155L40.8694 38.2359L41.6889 37.4155L40.8694 36.5952Z" fill="white"/>
<path d="M43.4846 31.916H42.3262V33.0756H43.4846V31.916Z" fill="white"/>
<path d="M40.8694 26.756L40.0498 27.5764L40.8694 28.3968L41.6889 27.5764L40.8694 26.756Z" fill="white"/>
<path d="M53.8923 32.3557C53.8621 32.2351 50.7158 20.3201 35.9535 20.3201C21.1913 20.3201 18.0449 32.2351 18.0148 32.3557L17.9795 32.496L18.0148 32.6364C18.0449 32.757 21.1913 44.672 35.9535 44.672C50.7158 44.672 53.8621 32.757 53.8923 32.6364L53.9276 32.496L53.8923 32.3557ZM19.1779 32.4989C19.4803 31.4941 21.6223 25.2826 28.8215 22.6538C25.7794 24.8692 23.7897 28.4501 23.7897 32.496C23.7897 36.5692 25.8049 40.1721 28.8829 42.3841C21.5748 39.7981 19.4872 33.5739 19.1779 32.4989ZM35.9535 21.4797C42.0221 21.4797 46.9589 26.4214 46.9589 32.496C46.9589 38.5707 42.0221 43.5124 35.9535 43.5124C29.885 43.5124 24.9482 38.5707 24.9482 32.496C24.9482 26.4214 29.885 21.4797 35.9535 21.4797ZM43.0856 42.3383C46.1277 40.1228 48.1174 36.5419 48.1174 32.496C48.1174 28.4229 46.1022 24.82 43.0242 22.608C50.3323 25.1939 52.4193 31.4182 52.7286 32.4931C52.4268 33.4985 50.2848 39.7094 43.0856 42.3383Z" fill="white"/>
<path d="M53.904 32.6328C53.8739 32.5122 50.7275 20.5972 35.9653 20.5972C21.203 20.5972 18.0567 32.5122 18.0265 32.6328L17.9912 32.7731L18.0265 32.9135C18.0567 33.0341 21.203 44.9491 35.9653 44.9491C50.7275 44.9491 53.8739 33.0341 53.904 32.9135L53.9393 32.7731L53.904 32.6328ZM19.1896 32.776C19.492 31.7712 21.634 25.5597 28.8332 22.9309C25.7911 25.1463 23.8015 28.7272 23.8015 32.7731C23.8015 36.8463 25.8166 40.4492 28.8946 42.6612C21.5865 40.0752 19.4989 33.851 19.1896 32.776ZM35.9653 21.7568C42.0338 21.7568 46.9706 26.6985 46.9706 32.7731C46.9706 38.8478 42.0338 43.7895 35.9653 43.7895C29.8967 43.7895 24.9599 38.8478 24.9599 32.7731C24.9599 26.6985 29.8967 21.7568 35.9653 21.7568ZM43.0973 42.6154C46.1394 40.3999 48.1291 36.819 48.1291 32.7731C48.1291 28.7 46.1139 25.0971 43.0359 22.8851C50.344 25.471 52.431 31.6953 52.7403 32.7702C52.4385 33.7756 50.2965 39.9865 43.0973 42.6154Z" fill="white"/>
<path d="M35.373 47.5707C35.373 47.8908 35.113 48.1505 34.7938 48.1505H25.4196C25.1798 47.4774 24.5426 46.9909 23.7885 46.9909C22.8304 46.9909 22.0508 47.7713 22.0508 48.7303C22.0508 49.6893 22.8304 50.4698 23.7885 50.4698C24.5426 50.4698 25.1798 49.9833 25.4196 49.3101H34.7938C35.7519 49.3101 36.5315 48.5297 36.5315 47.5707V45.8313H35.373V47.5707ZM23.7885 49.3101C23.4693 49.3101 23.2092 49.0504 23.2092 48.7303C23.2092 48.4103 23.4693 48.1505 23.7885 48.1505C24.1076 48.1505 24.3677 48.4103 24.3677 48.7303C24.3677 49.0504 24.1076 49.3101 23.7885 49.3101Z" fill="white"/>
<path d="M23.7884 45.2516C24.7464 45.2516 25.5261 44.4712 25.5261 43.5122V42.9324H24.3676V43.5122C24.3676 43.8322 24.1075 44.092 23.7884 44.092H21.3649C21.1251 43.4188 20.4879 42.9324 19.7338 42.9324C18.7757 42.9324 17.9961 43.7128 17.9961 44.6718C17.9961 45.6308 18.7757 46.4112 19.7338 46.4112C20.4879 46.4112 21.1251 45.9248 21.3649 45.2516H23.7884ZM19.7338 45.2516C19.4146 45.2516 19.1546 44.9919 19.1546 44.6718C19.1546 44.3517 19.4146 44.092 19.7338 44.092C20.0529 44.092 20.313 44.3517 20.313 44.6718C20.313 44.9919 20.0529 45.2516 19.7338 45.2516Z" fill="white"/>
<path d="M52.1712 18.5806C51.417 18.5806 50.7799 19.067 50.5401 19.7402H48.1166C47.1585 19.7402 46.3789 20.5206 46.3789 21.4796V22.0594H47.5374V21.4796C47.5374 21.1596 47.7974 20.8998 48.1166 20.8998H50.5401C50.7799 21.573 51.417 22.0594 52.1712 22.0594C53.1292 22.0594 53.9089 21.279 53.9089 20.32C53.9089 19.361 53.1292 18.5806 52.1712 18.5806ZM52.1712 20.8998C51.852 20.8998 51.592 20.64 51.592 20.32C51.592 19.9999 51.852 19.7402 52.1712 19.7402C52.4904 19.7402 52.7504 19.9999 52.7504 20.32C52.7504 20.64 52.4904 20.8998 52.1712 20.8998Z" fill="white"/>
<path d="M48.1151 18.0006C49.0732 18.0006 49.8528 17.2202 49.8528 16.2612C49.8528 15.3022 49.0732 14.5217 48.1151 14.5217C47.361 14.5217 46.7238 15.0082 46.484 15.6813H37.1098C36.1517 15.6813 35.3721 16.4618 35.3721 17.4208V19.1602H36.5305V17.4208C36.5305 17.1007 36.7906 16.841 37.1098 16.841H46.484C46.7238 17.5141 47.361 18.0006 48.1151 18.0006ZM48.1151 15.6813C48.4343 15.6813 48.6943 15.9411 48.6943 16.2612C48.6943 16.5812 48.4343 16.841 48.1151 16.841C47.796 16.841 47.5359 16.5812 47.5359 16.2612C47.5359 15.9411 47.796 15.6813 48.1151 15.6813Z" fill="white"/>
</svg>
