<svg width="72" height="65" viewBox="0 0 72 65" fill="none" xmlns="http://www.w3.org/2000/svg">
<rect width="71.9181" height="65.0036" rx="12.848" fill="#092332"/>
<path d="M35.9586 37.7215C40.7634 37.7215 44.6585 33.8264 44.6585 29.0216C44.6585 24.2168 40.7634 20.3218 35.9586 20.3218C31.1538 20.3218 27.2588 24.2168 27.2588 29.0216C27.2588 33.8264 31.1538 37.7215 35.9586 37.7215Z" fill="#F1A832"/>
<path d="M52.7789 32.0282V27.1742C53.4523 26.9341 53.9389 26.2961 53.9389 25.541C53.9389 24.5817 53.1582 23.801 52.1989 23.801C51.9994 23.801 51.8103 23.8416 51.6317 23.9037L49.0328 20.6545C49.1986 20.3895 49.299 20.078 49.299 19.7416C49.299 18.7823 48.5183 18.0017 47.559 18.0017C47.0712 18.0017 46.6316 18.2047 46.3149 18.5289L41.7429 16.4189C41.7481 16.3661 41.7591 16.3156 41.7591 16.2617C41.7591 15.3024 40.9784 14.5217 40.0191 14.5217C39.264 14.5217 38.626 15.0083 38.3859 15.6817H31.7925C31.5524 15.0083 30.9144 14.5217 30.1593 14.5217C29.2 14.5217 28.4193 15.3024 28.4193 16.2617C28.4193 16.3336 28.4321 16.4026 28.4408 16.4722L25.564 17.9106C25.2508 17.6096 24.8274 17.4217 24.3594 17.4217C23.4001 17.4217 22.6194 18.2023 22.6194 19.1617C22.6194 19.498 22.7198 19.8095 22.8851 20.0757L20.2861 23.3242C20.1075 23.2622 19.919 23.2216 19.7195 23.2216C18.7602 23.2216 17.9795 24.0023 17.9795 24.9616C17.9795 25.7167 18.4661 26.3547 19.1395 26.5948V30.2888C18.4661 30.5283 17.9795 31.1663 17.9795 31.9214C17.9795 32.8808 18.7602 33.6614 19.7195 33.6614C20.3638 33.6614 20.9206 33.3053 21.2216 32.7839L24.3878 33.3598C24.5218 34.1863 25.2352 34.8214 26.0994 34.8214C26.1231 34.8214 26.1446 34.8156 26.1678 34.8144L27.2744 37.581C26.9125 37.9006 26.6794 38.3617 26.6794 38.8813C26.6794 39.8406 27.46 40.6213 28.4193 40.6213C29.0028 40.6213 29.5172 40.3302 29.8328 39.8882L34.8102 41.3103C34.8549 42.0168 35.3189 42.606 35.9592 42.8346V47.1085C35.2858 47.3486 34.7992 47.9866 34.7992 48.7418C34.7992 49.7011 35.5799 50.4817 36.5392 50.4817C37.4985 50.4817 38.2792 49.7011 38.2792 48.7418C38.2792 47.9866 37.7926 47.3486 37.1192 47.1085V42.8346C37.7926 42.5944 38.2792 41.9564 38.2792 41.2013C38.2792 40.6457 38.0124 40.155 37.6052 39.8366L38.2977 37.7591L43.502 39.4938C43.5159 40.2345 43.995 40.8574 44.6585 41.094V47.1079C43.9851 47.348 43.4985 47.986 43.4985 48.7412C43.4985 49.7005 44.2792 50.4811 45.2385 50.4811C46.1978 50.4811 46.9784 49.7005 46.9784 48.7412C46.9784 47.986 46.4918 47.348 45.8185 47.1079V41.0946C46.4918 40.8545 46.9784 40.2165 46.9784 39.4613C46.9784 39.2496 46.9349 39.049 46.8653 38.861L51.3156 35.1526C51.5754 35.3069 51.8753 35.4014 52.1989 35.4014C53.1582 35.4014 53.9389 34.6207 53.9389 33.6614C53.9389 32.9063 53.4523 32.2683 52.7789 32.0282ZM27.8359 33.0489C27.8347 32.9794 27.8243 32.9127 27.815 32.8454L32.5726 30.3787L34.0441 35.1189L27.8359 33.0489ZM26.5413 31.4053L25.7374 25.2411L29.7121 25.0422C29.9644 25.6535 30.5554 26.0862 31.2503 26.114L32.2241 29.2523L27.2843 31.8136C27.0766 31.6204 26.8232 31.4801 26.5413 31.4053ZM21.3272 24.3004C21.2907 24.2116 21.2437 24.1281 21.1932 24.0475L23.7922 20.799C23.8594 20.8222 23.9256 20.8471 23.9957 20.8622L24.4243 24.1455L21.3272 24.3004ZM25.1453 20.7056C25.709 20.4173 26.0994 19.8368 26.0994 19.1617C26.0994 19.0897 26.0866 19.0207 26.0779 18.9511L28.9547 17.5127C29.2678 17.8138 29.6912 18.0017 30.1593 18.0017C30.5154 18.0017 30.8466 17.8932 31.1227 17.7088L34.7244 20.4098L32.1168 22.8434C31.8766 22.7193 31.6081 22.6416 31.3193 22.6416C30.534 22.6416 29.8763 23.1676 29.6605 23.8839L25.5866 24.0875L25.1453 20.7056ZM38.4259 16.9559L35.5857 19.6065L31.8987 16.8417H38.3859C38.3998 16.88 38.4097 16.9188 38.4259 16.9559ZM40.0429 25.1982L35.3757 27.6185L32.8847 25.1274C32.9931 24.9001 33.0592 24.6495 33.0592 24.3816C33.0592 24.1345 33.0059 23.9008 32.9131 23.6879L35.6669 21.1174L40.1056 24.4465C40.0545 24.6101 40.0191 24.7812 40.0191 24.9616C40.0191 25.0428 40.0325 25.1199 40.0429 25.1982ZM31.8993 24.3816C31.8993 24.7011 31.6394 24.9616 31.3193 24.9616C30.9991 24.9616 30.7393 24.7011 30.7393 24.3816C30.7393 24.062 30.9991 23.8016 31.3193 23.8016C31.6394 23.8016 31.8993 24.062 31.8993 24.3816ZM34.2958 28.1782L33.2698 28.71L32.5686 26.451L34.2958 28.1782ZM33.6189 29.8358L35.1559 29.0389L37.8732 31.7562C37.7653 31.9829 37.6992 32.2335 37.6992 32.5014C37.6992 33.0576 37.966 33.5477 38.3731 33.8662L37.5646 36.2917L35.3989 35.5696L33.6189 29.8358ZM39.4391 33.0814C39.119 33.0814 38.8592 32.821 38.8592 32.5014C38.8592 32.1819 39.119 31.9214 39.4391 31.9214C39.7593 31.9214 40.0191 32.1819 40.0191 32.5014C40.0191 32.821 39.7593 33.0814 39.4391 33.0814ZM39.4391 30.7615C39.1712 30.7615 38.9206 30.827 38.6939 30.936L36.2364 28.4786L40.5748 26.2288C40.8856 26.52 41.3003 26.7015 41.7591 26.7015C42.0827 26.7015 42.3826 26.607 42.6424 26.4521L45.2831 28.6526L40.5951 31.2098C40.2865 30.9343 39.8846 30.7615 39.4391 30.7615ZM46.7343 21.2641C46.9808 21.3987 47.2592 21.4816 47.559 21.4816C47.7585 21.4816 47.947 21.441 48.1257 21.379L50.7246 24.6281C50.5593 24.8943 50.459 25.2052 50.459 25.5416C50.459 25.6349 50.4723 25.7254 50.4868 25.8147L46.3787 28.0558L43.386 25.5618C43.4556 25.3739 43.4991 25.1733 43.4991 24.9616C43.4991 24.7255 43.4509 24.501 43.3657 24.2957L46.7343 21.2641ZM51.3162 32.1703L47.3369 28.8539L51.0436 26.832C51.2101 26.9817 51.4044 27.0977 51.6195 27.1742V32.0282C51.5128 32.0664 51.4119 32.1134 51.3162 32.1703ZM42.3391 24.9616C42.3391 25.2811 42.0793 25.5416 41.7591 25.5416C41.439 25.5416 41.1791 25.2811 41.1791 24.9616C41.1791 24.642 41.439 24.3816 41.7591 24.3816C42.0793 24.3816 42.3391 24.642 42.3391 24.9616ZM46.2413 29.4518L50.3975 32.9156L41.3926 32.0966L46.2413 29.4518ZM52.7789 25.5416C52.7789 25.8611 52.5191 26.1215 52.1989 26.1215C51.8788 26.1215 51.6189 25.8611 51.6189 25.5416C51.6189 25.222 51.8788 24.9616 52.1989 24.9616C52.5191 24.9616 52.7789 25.222 52.7789 25.5416ZM47.559 19.1617C47.8792 19.1617 48.139 19.4221 48.139 19.7416C48.139 20.0612 47.8792 20.3216 47.559 20.3216C47.2389 20.3216 46.979 20.0612 46.979 19.7416C46.979 19.4221 47.2389 19.1617 47.559 19.1617ZM45.8347 19.5845C45.8301 19.6372 45.819 19.6877 45.819 19.7416C45.819 19.9777 45.8672 20.2022 45.9524 20.4075L42.5833 23.4391C42.3374 23.3045 42.059 23.2216 41.7591 23.2216C41.403 23.2216 41.0718 23.33 40.7957 23.5145L36.5282 20.3135L39.2222 17.7993C39.4618 17.9245 39.7303 18.0017 40.0191 18.0017C40.5069 18.0017 40.9471 17.7987 41.2632 17.4745L45.8347 19.5845ZM40.0191 15.6817C40.3393 15.6817 40.5991 15.9421 40.5991 16.2617C40.5991 16.5813 40.3393 16.8417 40.0191 16.8417C39.699 16.8417 39.4391 16.5813 39.4391 16.2617C39.4391 15.9421 39.699 15.6817 40.0191 15.6817ZM30.1593 15.6817C30.4795 15.6817 30.7393 15.9421 30.7393 16.2617C30.7393 16.5813 30.4795 16.8417 30.1593 16.8417C29.8391 16.8417 29.5793 16.5813 29.5793 16.2617C29.5793 15.9421 29.8391 15.6817 30.1593 15.6817ZM24.3594 18.5817C24.6795 18.5817 24.9394 18.8421 24.9394 19.1617C24.9394 19.4812 24.6795 19.7416 24.3594 19.7416C24.0392 19.7416 23.7794 19.4812 23.7794 19.1617C23.7794 18.8421 24.0392 18.5817 24.3594 18.5817ZM19.7195 24.3816C20.0396 24.3816 20.2995 24.642 20.2995 24.9616C20.2995 25.2811 20.0396 25.5416 19.7195 25.5416C19.3993 25.5416 19.1395 25.2811 19.1395 24.9616C19.1395 24.642 19.3993 24.3816 19.7195 24.3816ZM19.7195 32.5014C19.3993 32.5014 19.1395 32.241 19.1395 31.9214C19.1395 31.6019 19.3993 31.3415 19.7195 31.3415C20.0396 31.3415 20.2995 31.6019 20.2995 31.9214C20.2995 32.241 20.0396 32.5014 19.7195 32.5014ZM20.2995 30.2882V26.5942C20.818 26.4092 21.2187 25.9887 21.3782 25.4586L24.5751 25.2985L25.3837 31.4986C25.0507 31.6494 24.7787 31.9035 24.5972 32.2178L21.4316 31.6431C21.3289 31.012 20.8881 30.4982 20.2995 30.2882ZM25.5194 33.0814C25.5194 32.7619 25.7792 32.5014 26.0994 32.5014C26.4195 32.5014 26.6794 32.7619 26.6794 33.0814C26.6794 33.401 26.4195 33.6614 26.0994 33.6614C25.7792 33.6614 25.5194 33.401 25.5194 33.0814ZM27.2443 34.3812C27.3249 34.3104 27.398 34.2321 27.4641 34.1475L34.4675 36.4819L35.5016 39.8128C35.3578 39.9207 35.2302 40.0477 35.1258 40.1939L30.1483 38.7717C30.0909 37.8646 29.3415 37.1414 28.4193 37.1414C28.3961 37.1414 28.3741 37.1472 28.3515 37.1483L27.2443 34.3812ZM28.4193 39.4613C28.0992 39.4613 27.8393 39.2009 27.8393 38.8813C27.8393 38.5618 28.0992 38.3013 28.4193 38.3013C28.7395 38.3013 28.9993 38.5618 28.9993 38.8813C28.9993 39.2009 28.7395 39.4613 28.4193 39.4613ZM36.5392 49.3212C36.219 49.3212 35.9592 49.0608 35.9592 48.7412C35.9592 48.4216 36.219 48.1612 36.5392 48.1612C36.8593 48.1612 37.1192 48.4216 37.1192 48.7412C37.1192 49.0608 36.8593 49.3212 36.5392 49.3212ZM36.5392 41.7813C36.219 41.7813 35.9592 41.5209 35.9592 41.2013C35.9592 40.8817 36.219 40.6213 36.5392 40.6213C36.8593 40.6213 37.1192 40.8817 37.1192 41.2013C37.1192 41.5209 36.8593 41.7813 36.5392 41.7813ZM36.5589 39.3082L35.8217 36.9337L37.1975 37.3925L36.5589 39.3082ZM39.4716 34.2379C40.1572 34.2252 40.7441 33.8145 41.0156 33.227L50.5193 34.0912C50.5344 34.1492 50.5518 34.206 50.5721 34.2617L46.1218 37.9702C45.862 37.8159 45.5627 37.7214 45.2391 37.7214C44.6834 37.7214 44.1927 37.9881 43.8743 38.3953L38.6649 36.6588L39.4716 34.2379ZM45.2391 49.3212C44.9189 49.3212 44.6591 49.0608 44.6591 48.7412C44.6591 48.4216 44.9189 48.1612 45.2391 48.1612C45.5592 48.1612 45.819 48.4216 45.819 48.7412C45.819 49.0608 45.5592 49.3212 45.2391 49.3212ZM45.2391 40.0413C44.9189 40.0413 44.6591 39.7809 44.6591 39.4613C44.6591 39.1418 44.9189 38.8813 45.2391 38.8813C45.5592 38.8813 45.819 39.1418 45.819 39.4613C45.819 39.7809 45.5592 40.0413 45.2391 40.0413ZM52.1989 34.2414C51.8788 34.2414 51.6189 33.981 51.6189 33.6614C51.6189 33.3418 51.8788 33.0814 52.1989 33.0814C52.5191 33.0814 52.7789 33.3418 52.7789 33.6614C52.7789 33.981 52.5191 34.2414 52.1989 34.2414Z" fill="white"/>
<path d="M20.2996 14.5217H19.1396V15.6817H20.2996V14.5217Z" fill="white"/>
<path d="M20.2996 16.8418H19.1396V18.0018H20.2996V16.8418Z" fill="white"/>
<path d="M21.4588 15.6819H20.2988V16.8419H21.4588V15.6819Z" fill="white"/>
<path d="M19.1395 15.6816H17.9795V16.8416H19.1395V15.6816Z" fill="white"/>
<path d="M49.2996 41.2014H48.1396V42.3614H49.2996V41.2014Z" fill="white"/>
<path d="M49.2996 43.5212H48.1396V44.6812H49.2996V43.5212Z" fill="white"/>
<path d="M50.4588 42.3613H49.2988V43.5213H50.4588V42.3613Z" fill="white"/>
<path d="M48.1385 42.3613H46.9785V43.5213H48.1385V42.3613Z" fill="white"/>
<path d="M52.7791 16.8418H51.6191V18.0018H52.7791V16.8418Z" fill="white"/>
<path d="M52.7791 19.1616H51.6191V20.3216H52.7791V19.1616Z" fill="white"/>
<path d="M53.9383 18.0017H52.7783V19.1617H53.9383V18.0017Z" fill="white"/>
<path d="M51.619 18.0017H50.459V19.1617H51.619V18.0017Z" fill="white"/>
<path d="M26.0994 42.3613H24.9395V43.5213H26.0994V42.3613Z" fill="white"/>
<path d="M26.0994 44.6812H24.9395V45.8411H26.0994V44.6812Z" fill="white"/>
<path d="M27.2586 43.5212H26.0986V44.6812H27.2586V43.5212Z" fill="white"/>
<path d="M24.9393 43.5212H23.7793V44.6812H24.9393V43.5212Z" fill="white"/>
<path d="M22.6199 35.9814H21.46V37.1414H22.6199V35.9814Z" fill="white"/>
<path d="M22.6199 38.3013H21.46V39.4613H22.6199V38.3013Z" fill="white"/>
<path d="M23.7801 37.1414H22.6201V38.3013H23.7801V37.1414Z" fill="white"/>
<path d="M21.4588 37.1414H20.2988V38.3013H21.4588V37.1414Z" fill="white"/>
</svg>
