<svg width="72" height="65" viewBox="0 0 72 65" fill="none" xmlns="http://www.w3.org/2000/svg">
<rect width="71.9187" height="65.0036" rx="12.848" fill="#092332"/>
<path d="M42.522 38.2606L40.0611 35.7997L38.7091 36.6111C38.5055 36.5136 38.2967 36.4266 38.0821 36.3512L37.6999 34.8218H34.2199L33.8377 36.3512C33.6231 36.4272 33.4143 36.5142 33.2107 36.6111L31.8587 35.7997L29.3978 38.2606L30.2092 39.6126C30.1118 39.8162 30.0248 40.025 29.9494 40.2396L28.4199 40.6218V44.1018L29.9494 44.484C30.0254 44.6986 30.1124 44.9074 30.2092 45.111L29.3978 46.463L31.8587 48.9239L33.2107 48.1125C33.4143 48.2099 33.6231 48.2969 33.8377 48.3723L34.2199 49.9018H37.6999L38.0821 48.3723C38.2967 48.2963 38.5055 48.2093 38.7091 48.1125L40.0611 48.9239L42.522 46.463L41.7106 45.111C41.8081 44.9074 41.8951 44.6986 41.9705 44.484L43.4999 44.1018V40.6218L41.9705 40.2396C41.8945 40.025 41.8075 39.8162 41.7106 39.6126L42.522 38.2606Z" fill="#F1A832"/>
<path d="M41.7577 23.2217H40.5977V26.1217H41.7577V23.2217Z" fill="white"/>
<path d="M46.2313 28.8517L45.4111 28.0316L46.9812 26.4615V19.1616H48.1412V26.9417L46.2313 28.8517Z" fill="white"/>
<path d="M50.8699 32.3318L50.0498 31.5117L51.6199 29.9416V23.8018H52.7799V30.4219L50.8699 32.3318Z" fill="white"/>
<path d="M41.1814 22.0618C40.2221 22.0618 39.4414 21.2811 39.4414 20.3218C39.4414 19.3625 40.2221 18.5818 41.1814 18.5818C42.1407 18.5818 42.9214 19.3625 42.9214 20.3218C42.9214 21.2811 42.1407 22.0618 41.1814 22.0618ZM41.1814 19.7418C40.8612 19.7418 40.6014 20.0016 40.6014 20.3218C40.6014 20.6419 40.8612 20.9018 41.1814 20.9018C41.5016 20.9018 41.7614 20.6419 41.7614 20.3218C41.7614 20.0016 41.5016 19.7418 41.1814 19.7418Z" fill="white"/>
<path d="M36.5418 19.1616H35.3818V25.5416H36.5418V19.1616Z" fill="white"/>
<path d="M35.9597 18.0017C35.0004 18.0017 34.2197 17.221 34.2197 16.2617C34.2197 15.3024 35.0004 14.5217 35.9597 14.5217C36.919 14.5217 37.6997 15.3024 37.6997 16.2617C37.6997 17.221 36.919 18.0017 35.9597 18.0017ZM35.9597 15.6817C35.6396 15.6817 35.3797 15.9416 35.3797 16.2617C35.3797 16.5819 35.6396 16.8417 35.9597 16.8417C36.2799 16.8417 36.5397 16.5819 36.5397 16.2617C36.5397 15.9416 36.2799 15.6817 35.9597 15.6817Z" fill="white"/>
<path d="M47.5584 18.0017C46.599 18.0017 45.8184 17.221 45.8184 16.2617C45.8184 15.3024 46.599 14.5217 47.5584 14.5217C48.5177 14.5217 49.2984 15.3024 49.2984 16.2617C49.2984 17.221 48.5177 18.0017 47.5584 18.0017ZM47.5584 15.6817C47.2382 15.6817 46.9784 15.9416 46.9784 16.2617C46.9784 16.5819 47.2382 16.8417 47.5584 16.8417C47.8785 16.8417 48.1384 16.5819 48.1384 16.2617C48.1384 15.9416 47.8785 15.6817 47.5584 15.6817Z" fill="white"/>
<path d="M52.198 22.6416C51.2387 22.6416 50.458 21.8609 50.458 20.9016C50.458 19.9423 51.2387 19.1616 52.198 19.1616C53.1573 19.1616 53.938 19.9423 53.938 20.9016C53.938 21.8609 53.1573 22.6416 52.198 22.6416ZM52.198 20.3216C51.8778 20.3216 51.618 20.5815 51.618 20.9016C51.618 21.2218 51.8778 21.4816 52.198 21.4816C52.5182 21.4816 52.778 21.2218 52.778 20.9016C52.778 20.5815 52.5182 20.3216 52.198 20.3216Z" fill="white"/>
<path d="M31.3202 23.2217H30.1602V26.7017H31.3202V23.2217Z" fill="white"/>
<path d="M25.6883 28.8517L23.7783 26.9417V19.1616H24.9383V26.4615L26.5084 28.0316L25.6883 28.8517Z" fill="white"/>
<path d="M22.2106 33.4918L19.1406 30.4219V23.8018H20.3006V29.9416L23.0307 32.6717L22.2106 33.4918Z" fill="white"/>
<path d="M30.741 22.0618C29.7817 22.0618 29.001 21.2811 29.001 20.3218C29.001 19.3625 29.7817 18.5818 30.741 18.5818C31.7003 18.5818 32.481 19.3625 32.481 20.3218C32.481 21.2811 31.7003 22.0618 30.741 22.0618ZM30.741 19.7418C30.4208 19.7418 30.161 20.0016 30.161 20.3218C30.161 20.6419 30.4208 20.9018 30.741 20.9018C31.0611 20.9018 31.321 20.6419 31.321 20.3218C31.321 20.0016 31.0611 19.7418 30.741 19.7418Z" fill="white"/>
<path d="M24.3572 18.0017C23.3979 18.0017 22.6172 17.221 22.6172 16.2617C22.6172 15.3024 23.3979 14.5217 24.3572 14.5217C25.3165 14.5217 26.0972 15.3024 26.0972 16.2617C26.0972 17.221 25.3165 18.0017 24.3572 18.0017ZM24.3572 15.6817C24.037 15.6817 23.7772 15.9416 23.7772 16.2617C23.7772 16.5819 24.037 16.8417 24.3572 16.8417C24.6773 16.8417 24.9372 16.5819 24.9372 16.2617C24.9372 15.9416 24.6773 15.6817 24.3572 15.6817Z" fill="white"/>
<path d="M19.7195 22.6416C18.7602 22.6416 17.9795 21.8609 17.9795 20.9016C17.9795 19.9423 18.7602 19.1616 19.7195 19.1616C20.6788 19.1616 21.4595 19.9423 21.4595 20.9016C21.4595 21.8609 20.6788 22.6416 19.7195 22.6416ZM19.7195 20.3216C19.3993 20.3216 19.1395 20.5815 19.1395 20.9016C19.1395 21.2218 19.3993 21.4816 19.7195 21.4816C20.0397 21.4816 20.2995 21.2218 20.2995 20.9016C20.2995 20.5815 20.0397 20.3216 19.7195 20.3216Z" fill="white"/>
<path d="M33.6387 42.3615C33.6387 43.641 34.6792 44.6815 35.9587 44.6815C37.2382 44.6815 38.2787 43.641 38.2787 42.3615C38.2787 41.082 37.2382 40.0415 35.9587 40.0415C34.6792 40.0415 33.6387 41.082 33.6387 42.3615ZM37.1187 42.3615C37.1187 43.0012 36.5984 43.5215 35.9587 43.5215C35.3189 43.5215 34.7987 43.0012 34.7987 42.3615C34.7987 41.7218 35.3189 41.2015 35.9587 41.2015C36.5984 41.2015 37.1187 41.7218 37.1187 42.3615Z" fill="white"/>
<path d="M42.2328 39.3625L41.1859 39.8619C41.274 40.0475 41.3535 40.2372 41.4225 40.4321L41.5263 40.7261L42.9183 41.0747V43.6488L41.5263 43.9973L41.4225 44.2914C41.3535 44.4863 41.2746 44.6753 41.1864 44.8604L41.0519 45.1411L41.7902 46.373L39.9696 48.1936L38.7388 47.4553L38.4581 47.5893C38.2725 47.6774 38.0829 47.7569 37.888 47.8259L37.5939 47.9297L37.2459 49.3217H34.6719L34.3233 47.9297L34.0292 47.8259C33.8344 47.7569 33.6447 47.6774 33.4591 47.5893L33.1784 47.4553L31.9476 48.1936L29.8074 46.0534L28.9873 46.8735L31.7678 49.6541L33.2486 48.7661C33.2816 48.78 33.3147 48.7939 33.3477 48.8073L33.7659 50.4817H38.1519L38.5706 48.8067C38.6037 48.7933 38.6368 48.7794 38.6698 48.7655L40.1506 49.6535L43.2512 46.5528L42.3638 45.0721C42.3772 45.0384 42.3911 45.0059 42.4044 44.9729L44.0789 44.5547V40.1688L42.4039 39.75C42.3511 39.6189 42.2937 39.4896 42.2328 39.3625Z" fill="white"/>
<path d="M27.8398 40.1687V44.5547L29.5149 44.9734C29.5682 45.1045 29.6251 45.2339 29.6866 45.3609L30.7323 44.8603C30.6441 44.6753 30.5653 44.4857 30.4962 44.2914L30.3918 43.9967L28.9998 43.6487V41.0747L30.3918 40.7261L30.4957 40.432C30.5647 40.2372 30.6441 40.0475 30.7323 39.8619L30.8663 39.5812L30.1279 38.3504L31.9486 36.5298L33.1793 37.2681L33.46 37.1342C33.6456 37.046 33.8353 36.9665 34.0302 36.8975L34.3242 36.7937L34.6728 35.4017H37.2469L37.5954 36.7937L37.8895 36.8975C38.0844 36.9665 38.274 37.046 38.4596 37.1342L38.7404 37.2681L39.9711 36.5298L42.1113 38.67L42.9314 37.8499L40.1509 35.0694L38.6702 35.9573C38.6371 35.9434 38.6041 35.9295 38.571 35.9162L38.1528 34.2417H33.7669L33.3481 35.9167C33.315 35.9301 33.282 35.944 33.2489 35.9579L31.7682 35.0699L28.6675 38.1706L29.5555 39.6514C29.5416 39.6844 29.5276 39.7175 29.5143 39.7505L27.8398 40.1687Z" fill="white"/>
<path d="M51.616 36.6075C51.6166 36.5924 51.6195 36.5767 51.6195 36.5617C51.6195 34.041 49.5982 31.9878 47.092 31.9275C46.6269 31.123 45.8502 30.5233 44.9275 30.2907C44.2529 28.5078 42.5268 27.2817 40.5995 27.2817C39.8832 27.2817 39.1773 27.4493 38.5353 27.77C37.6282 27.0781 36.5227 26.7017 35.3795 26.7017C34.0426 26.7017 32.7631 27.219 31.798 28.129C31.2818 27.9579 30.732 27.8617 30.1595 27.8617C27.582 27.8617 25.3942 29.7525 25.005 32.2824C23.9425 32.7615 23.12 33.6849 22.7842 34.8431C20.1 35.0554 17.9795 37.3035 17.9795 40.0417C17.9795 42.9202 20.321 45.2617 23.1995 45.2617H26.6795V44.1017H23.1995C20.9613 44.1017 19.1395 42.2799 19.1395 40.0417C19.1395 37.8034 20.9613 35.9817 23.1995 35.9817C24.439 35.9817 25.5943 36.5373 26.3704 37.5053L27.2757 36.7803C26.4481 35.7468 25.2823 35.0867 23.9993 34.8901C24.4337 33.8154 25.4743 33.0817 26.6795 33.0817C27.7107 33.0817 28.6735 33.6373 29.1915 34.5311L30.1949 33.9499C29.4705 32.6989 28.1231 31.9217 26.6795 31.9217C26.5391 31.9217 26.4011 31.9304 26.2642 31.9443C26.7601 30.2414 28.3337 29.0217 30.1595 29.0217C32.3977 29.0217 34.2195 30.8434 34.2195 33.0817H35.3795C35.3795 31.228 34.4057 29.6011 32.9452 28.6748C33.6424 28.1522 34.495 27.8617 35.3795 27.8617C36.3759 27.8617 37.3364 28.2311 38.0846 28.901L38.4077 29.1899L38.7766 28.9619C39.3281 28.622 39.9586 28.4417 40.5995 28.4417C41.8633 28.4417 43.0117 29.1464 43.6201 30.2153C41.9178 30.4415 40.5995 31.8985 40.5995 33.6617H41.7595C41.7595 32.3822 42.8 31.3417 44.0795 31.3417C45.359 31.3417 46.3995 32.3822 46.3995 33.6617C46.3995 34.9411 45.359 35.9817 44.0795 35.9817V37.1417C45.9987 37.1417 47.5595 35.5809 47.5595 33.6617C47.5595 33.4795 47.5409 33.3021 47.5143 33.1269C49.0379 33.3635 50.2362 34.5891 50.4293 36.1267C50.0668 36.0356 49.6898 35.9817 49.2995 35.9817C47.6575 35.9817 46.1704 36.8221 45.323 38.2303L46.3166 38.8283C46.9522 37.7721 48.0676 37.1417 49.2995 37.1417C51.2187 37.1417 52.7795 38.7024 52.7795 40.6217C52.7795 42.5409 51.2187 44.1017 49.2995 44.1017H45.2395V45.2617H49.2995C51.8579 45.2617 53.9395 43.18 53.9395 40.6217C53.9395 38.9072 53.0028 37.4108 51.616 36.6075Z" fill="white"/>
<path d="M49.8807 40.6216H48.7207V41.7816H49.8807V40.6216Z" fill="white"/>
<path d="M35.3784 37.7217V37.7617C33.0932 38.0488 31.3184 39.9999 31.3184 42.3617C31.3184 44.9201 33.4 47.0017 35.9584 47.0017C38.3201 47.0017 40.2712 45.2269 40.5583 42.9417H40.5984V41.7817H40.5583C40.2956 39.6867 38.6333 38.025 36.5384 37.7617V37.7217H35.3784ZM39.4384 42.3617C39.4384 44.2809 37.8776 45.8417 35.9584 45.8417C34.0391 45.8417 32.4784 44.2809 32.4784 42.3617C32.4784 40.4425 34.0391 38.8817 35.9584 38.8817C37.8776 38.8817 39.4384 40.4425 39.4384 42.3617Z" fill="white"/>
<path d="M23.7811 41.2017H22.6211V42.3617H23.7811V41.2017Z" fill="white"/>
<path d="M32.4784 31.3418H31.3184V32.5018H32.4784V31.3418Z" fill="white"/>
<path d="M39.4403 30.7617H38.2803V31.9217H39.4403V30.7617Z" fill="white"/>
</svg>
