<svg width="24" height="24" viewBox="0 0 24 24" fill="none" xmlns="http://www.w3.org/2000/svg">
<path d="M11.5166 0C5.1665 0 0 5.16602 0 11.5166C0 17.8672 5.1665 23.0332 11.5166 23.0332C17.8672 23.0332 23.0337 17.8672 23.0337 11.5166C23.0337 5.16602 17.8672 0 11.5166 0ZM15.8779 12.1406L9.5747 15.8203C9.46142 15.8857 9.33691 15.9189 9.2124 15.9189C9.08984 15.9189 8.96728 15.8867 8.85547 15.8232C8.6294 15.6934 8.49463 15.46 8.49463 15.1992V7.83399C8.49463 7.57325 8.62988 7.34083 8.85596 7.21094C9.08155 7.08106 9.35108 7.08203 9.57569 7.21387L15.8774 10.9004C16.1001 11.0303 16.2329 11.2617 16.2334 11.5195C16.2334 11.7783 16.1006 12.0098 15.8779 12.1406Z" fill="white"/>
</svg>
