<svg width="30" height="30" viewBox="0 0 30 30" fill="none" xmlns="http://www.w3.org/2000/svg">
<path d="M0 27.2146L0 28.8393L11.7215 17.1179V18.4525L0.174081 29.8838L3.71373 29.9999V29.3036L5.39652 27.6788H7.25338V25.5898H8.29787L8.9942 24.7775H10.3288V21.8181L12.3017 21.8761L12.1857 20.7156H13.9265L16.3056 18.2204C14.3327 17.408 13.4623 16.3635 12.3598 14.7388L0 27.2146Z" fill="white"/>
<path d="M17.8664 4.23828C11.1354 10.5632 20.0135 19.4994 26.3384 14.0449C17.403 29.9443 1.90968 8.59031 17.8664 4.23828Z" fill="white"/>
<path d="M23.2691 0C23.2691 0 23.4214 1.4676 24.0331 2.07932C24.6448 2.69105 26.1124 2.84333 26.1124 2.84333C26.1124 2.84333 24.6448 2.99561 24.0331 3.60733C23.4214 4.21905 23.2691 5.68665 23.2691 5.68665C23.2691 5.68665 23.1168 4.21905 22.5051 3.60733C21.8934 2.99561 20.4258 2.84333 20.4258 2.84333C20.4258 2.84333 21.8934 2.69105 22.5051 2.07932C23.1168 1.4676 23.2691 0 23.2691 0Z" fill="white"/>
<path d="M28.2591 15.8994C28.2591 15.8994 28.3057 16.3487 28.493 16.5359C28.6802 16.7232 29.1295 16.7698 29.1295 16.7698C29.1295 16.7698 28.6802 16.8164 28.493 17.0037C28.3057 17.191 28.2591 17.6402 28.2591 17.6402C28.2591 17.6402 28.2125 17.191 28.0252 17.0037C27.8379 16.8164 27.3887 16.7698 27.3887 16.7698C27.3887 16.7698 27.8379 16.7232 28.0252 16.5359C28.2125 16.3487 28.2591 15.8994 28.2591 15.8994Z" fill="white"/>
<path d="M8.99443 11.7217C8.99443 11.7217 9.04105 12.1709 9.22831 12.3582C9.41557 12.5455 9.86484 12.5921 9.86484 12.5921C9.86484 12.5921 9.41557 12.6387 9.22831 12.826C9.04105 13.0132 8.99443 13.4625 8.99443 13.4625C8.99443 13.4625 8.94781 13.0132 8.76055 12.826C8.57329 12.6387 8.12402 12.5921 8.12402 12.5921C8.12402 12.5921 8.57329 12.5455 8.76055 12.3582C8.94781 12.1709 8.99443 11.7217 8.99443 11.7217Z" fill="white"/>
<path d="M7.42765 7.8916C7.42765 7.8916 7.50845 8.67033 7.83304 8.99492C8.15763 9.3195 8.93635 9.40031 8.93635 9.40031C8.93635 9.40031 8.15763 9.48111 7.83304 9.8057C7.50845 10.1303 7.42765 10.909 7.42765 10.909C7.42765 10.909 7.34685 10.1303 7.02226 9.8057C6.69767 9.48111 5.91895 9.40031 5.91895 9.40031C5.91895 9.40031 6.69767 9.3195 7.02226 8.99492C7.34685 8.67033 7.42765 7.8916 7.42765 7.8916Z" fill="white"/>
<path d="M17.4644 6.7944C17.3992 5.74883 17.4808 5.1889 17.8706 4.24121C10.9981 9.98589 19.9923 19.9665 26.3426 13.9317C25.6712 14.1888 25.1846 14.2232 24.1956 14.1638C23.7894 14.8602 22.7449 14.9762 22.3967 13.9317C19.5504 13.0327 18.5956 12.0054 17.6965 9.52168C15.2014 9.40562 15.9557 6.7944 17.4644 6.7944Z" fill="#D4E8FB"/>
<path d="M17.5807 9.23154C18.8573 8.59324 18.6252 7.4327 17.4644 7.02651C19.1284 7.13316 19.3795 8.88338 17.5807 9.23154Z" fill="#D4E8FB"/>
<path d="M20.482 9.23154C20.9491 8.76854 21.4105 8.82535 21.5265 9.52168C21.7586 8.53521 20.8359 8.29053 20.482 9.23154Z" fill="#D4E8FB"/>
<path d="M24.3698 9.69576C25.0081 9.69576 25.5304 10.218 24.8341 10.9724C25.9366 10.3341 25.4236 9.44709 24.3698 9.69576Z" fill="#D4E8FB"/>
<path d="M22.629 13.5255C23.1513 12.8292 24.0797 13.0033 23.9637 13.9317C24.3698 12.4811 22.8611 12.423 22.629 13.5255Z" fill="#D4E8FB"/>
</svg>
