<svg width="18" height="18" viewBox="0 0 18 18" fill="none" xmlns="http://www.w3.org/2000/svg">
<path d="M10.3915 7.4362L11.8101 6.0176C11.1026 5.38476 10.1685 5 9.14451 5C6.93539 5 5.14453 6.79086 5.14453 9C5.14453 11.2091 6.93539 13 9.14451 13C10.2558 13 11.2612 12.5468 11.9861 11.8152L10.6735 10.5026L10.4641 10.503C10.1119 10.8124 9.65011 11 9.14451 11C8.04001 11 7.14451 10.1046 7.14451 9C7.14451 7.8954 8.04001 7 9.14451 7C9.61611 7 10.0496 7.1632 10.3915 7.4362Z" fill="white"/>
<path fill-rule="evenodd" clip-rule="evenodd" d="M9 0C13.9706 0 18 4.02944 18 9C18 13.9706 13.9706 18 9 18C4.02944 18 0 13.9706 0 9C0 4.02944 4.02944 0 9 0ZM9 2C12.866 2 16 5.13401 16 9C16 12.866 12.866 16 9 16C5.13401 16 2 12.866 2 9C2 5.13401 5.13401 2 9 2Z" fill="white"/>
</svg>
