<svg width="18" height="18" viewBox="0 0 18 18" fill="none" xmlns="http://www.w3.org/2000/svg">
<path d="M9 0C4.02943 0 0 4.02943 0 9C0 13.9706 4.02943 18 9 18C13.9706 18 18 13.9706 18 9C18 4.02943 13.9706 0 9 0ZM12.9345 6.98365C12.9451 7.65482 12.8562 11.0107 9.67117 12.4648C6.48612 13.919 4.07812 12.1069 4.07812 12.1069C5.8597 12.2747 7.02826 11.2679 7.02826 11.2679C5.58524 11.2064 5.16575 9.86407 5.16575 9.86407C5.68034 9.95358 6.0364 9.81 6.0364 9.81C4.42564 9.37758 4.46664 7.81144 4.46664 7.81144C4.92525 8.08362 5.32796 8.03514 5.32796 8.03514C3.8365 6.96129 4.74929 5.36168 4.74929 5.36168C6.4272 7.43112 8.94062 7.48884 8.94062 7.48884C8.90497 7.32283 8.88738 7.15345 8.88813 6.98365C8.88813 5.64135 10.0709 4.97018 10.9016 4.97018C11.7324 4.97018 12.3472 5.59659 12.3472 5.59659C12.9793 5.56847 13.656 5.13795 13.656 5.13795C13.3875 5.95455 12.8228 6.25658 12.8228 6.25658C13.3346 6.20065 13.9221 5.94334 13.9221 5.94334C13.7235 6.37963 12.9345 6.98365 12.9345 6.98365Z" fill="white"/>
</svg>
